<?xml version="1.0" encoding="UTF-8" standalone="no"?>
<!-- Created with Inkscape (http://www.inkscape.org/) -->

<svg
   xmlns:dc="http://purl.org/dc/elements/1.1/"
   xmlns:cc="http://creativecommons.org/ns#"
   xmlns:rdf="http://www.w3.org/1999/02/22-rdf-syntax-ns#"
   xmlns:svg="http://www.w3.org/2000/svg"
   xmlns="http://www.w3.org/2000/svg"
   xmlns:sodipodi="http://sodipodi.sourceforge.net/DTD/sodipodi-0.dtd"
   xmlns:inkscape="http://www.inkscape.org/namespaces/inkscape"
   version="1.1"
   id="svg4529"
   width="512"
   height="512"
   viewBox="0 0 512 512"
   sodipodi:docname="U+4EE5.svg"
   inkscape:version="0.92.4 (5da689c313, 2019-01-14)">
  <metadata
     id="metadata4535">
    <rdf:RDF>
      <cc:Work
         rdf:about="">
        <dc:format>image/svg+xml</dc:format>
        <dc:type
           rdf:resource="http://purl.org/dc/dcmitype/StillImage" />
        <dc:title></dc:title>
      </cc:Work>
    </rdf:RDF>
  </metadata>
  <defs
     id="defs4533" />
  <sodipodi:namedview
     pagecolor="#ffffff"
     bordercolor="#666666"
     borderopacity="1"
     objecttolerance="10"
     gridtolerance="10"
     guidetolerance="10"
     inkscape:pageopacity="0"
     inkscape:pageshadow="2"
     inkscape:window-width="1920"
     inkscape:window-height="1017"
     id="namedview4531"
     showgrid="false"
     inkscape:zoom="1"
     inkscape:cx="40.959999"
     inkscape:cy="232.03796"
     inkscape:window-x="-8"
     inkscape:window-y="-8"
     inkscape:window-maximized="1"
     inkscape:current-layer="svg4529"
     fit-margin-top="0.3" />
  <path
     style="fill:#000000;fill-opacity:1;stroke:#000000;stroke-width:1px;stroke-linecap:butt;stroke-linejoin:miter;stroke-opacity:1"
     d="m 55,197 c 17,34 29,23 40,41 11,18 12,59 -3,60 -15,1 -15,-5 -23,-8 -8,-3 -23,0 -24,15 -1,15 -2,45 14,46 16,1 17,-2 26,-8 9,-6 92,-68 92,-76 0,-8 31,-2 71,-44 40,-42 -47,23 -104,-5 C 87,190 55,197 55,197 Z"
     id="path6217"
     inkscape:connector-curvature="0" />
  <path
     style="fill:#000000;fill-opacity:1;stroke:#000000;stroke-width:1px;stroke-linecap:butt;stroke-linejoin:miter;stroke-opacity:1"
     d="m 362,140 c 0,0 44,-15 63,0 19,15 30,33 26,43 -4,10 -14,58 -44,72 -30,14 -36,34 -46,24 -10,-10 -34,-20 -47,-8 -13,12 -17,23 -11,36 6,13 33,30 49,19 16,-11 16,-18 26,-15 10,3 15,9 29,25 14,16 64,7 73,-4 9,-11 -48,-14 -76,-33 -28,-19 82,-41 75,-94 -7,-53 -42,-84 -66,-84 -24,0 -51,19 -51,19 z"
     id="path6219"
     inkscape:connector-curvature="0" />
  <path
     style="fill:#ffffff;fill-opacity:1;stroke:#000000;stroke-width:1px;stroke-linecap:butt;stroke-linejoin:miter;stroke-opacity:1"
     d="m 133,237 -12,42 38,-24 z"
     id="path6223"
     inkscape:connector-curvature="0" />
</svg>
