<?xml version="1.0" encoding="UTF-8" standalone="no"?>
<!-- Created with Inkscape (http://www.inkscape.org/) -->

<svg
   xmlns:dc="http://purl.org/dc/elements/1.1/"
   xmlns:cc="http://creativecommons.org/ns#"
   xmlns:rdf="http://www.w3.org/1999/02/22-rdf-syntax-ns#"
   xmlns:svg="http://www.w3.org/2000/svg"
   xmlns="http://www.w3.org/2000/svg"
   xmlns:sodipodi="http://sodipodi.sourceforge.net/DTD/sodipodi-0.dtd"
   xmlns:inkscape="http://www.inkscape.org/namespaces/inkscape"
   version="1.1"
   id="svg3713"
   width="682.66669"
   height="682.66669"
   viewBox="0 0 682.66669 682.66669"
   sodipodi:docname="U+4ED5.svg"
   inkscape:version="0.92.4 (5da689c313, 2019-01-14)">
  <metadata
     id="metadata3719">
    <rdf:RDF>
      <cc:Work
         rdf:about="">
        <dc:format>image/svg+xml</dc:format>
        <dc:type
           rdf:resource="http://purl.org/dc/dcmitype/StillImage" />
        <dc:title></dc:title>
      </cc:Work>
    </rdf:RDF>
  </metadata>
  <defs
     id="defs3717">
    <clipPath
       clipPathUnits="userSpaceOnUse"
       id="clipPath4552">
      <g
         style="fill:#000000;fill-opacity:1"
         id="use4554"
         inkscape:label="Clip">
        <a
           style="fill:#000000;fill-opacity:1"
           id="a4558">
          <path
             inkscape:connector-curvature="0"
             id="path4556"
             d="m 398.6257,111.35698 c 0,0 -4.84161,6.45547 -0.80693,15.33176 4.03467,8.87628 25.01497,12.10401 25.01497,12.10401 l 39.5398,125.8818 c 0,0 -71.81718,22.59417 -77.46573,22.59417 -5.64854,0 -29.85658,-6.45547 -37.11899,-20.17336 -7.26241,-13.71789 -10.49015,6.45548 -10.49015,6.45548 l 33.89125,79.07959 c 0,0 23.40111,13.71789 53.25769,-20.17337 29.85658,-33.89125 49.22301,-11.29708 49.22301,-11.29708 0,0 8.06935,71.81718 2.4208,80.69346 -5.64854,8.87628 -6.45547,16.94563 -24.20803,16.13869 -17.75257,-0.80693 -48.41608,4.03468 -48.41608,4.03468"
             style="fill:#000000;fill-opacity:1;stroke:#000000;stroke-width:1px;stroke-linecap:butt;stroke-linejoin:miter;stroke-opacity:1" />
        </a>
        <path
           style="fill:#000000;fill-opacity:1;stroke:#000000;stroke-width:1px;stroke-linecap:butt;stroke-linejoin:miter;stroke-opacity:1"
           d="m 403.46731,422.02681 c 0,0 -10.49015,-16.1387 -20.17337,-14.52483 -9.68321,1.61387 -29.04964,12.91096 -29.04964,12.91096 0,0 -9.68322,21.78723 -2.42081,25.8219 7.26242,4.03468 26.62885,51.64382 42.76754,47.60915 16.13869,-4.03468 16.94563,-20.9803 42.76753,-28.24272 25.82191,-7.26241 51.64382,-18.55949 60.5201,-16.13869 8.87628,2.42081 55.67849,-3.22774 65.3617,4.84161 9.68322,8.06935 26.62885,10.49015 38.73287,11.29708 12.10401,0.80694 17.75256,-4.8416 21.78723,-14.52482 4.03467,-9.68321 0,-41.9606 -20.17337,-44.3814 -20.17336,-2.42081 -66.97557,-17.75256 -78.27265,-14.52483 -11.29709,3.22774 -14.52483,-87.14893 -11.29709,-94.41135 3.22774,-7.26241 50.02995,-16.94562 58.09929,-24.20803 8.06935,-7.26242 59.71317,-8.06935 64.55477,-14.52483 4.84161,-6.45547 23.40111,-41.15366 -19.36643,-45.18834 -42.76753,-4.03467 -47.60914,-6.45547 -55.67849,0.80694 -8.06934,7.26241 -35.50512,34.69819 -41.9606,32.27738 -6.45547,-2.4208 -2.4208,-68.58944 -7.26241,-73.43105 -4.84161,-4.8416 11.29709,-22.59417 -13.71789,-40.34673 C 473.67062,115.39165 398.6257,111.35698 398.6257,111.35698 v 0"
           id="path4560"
           inkscape:connector-curvature="0" />
      </g>
    </clipPath>
  </defs>
  <sodipodi:namedview
     pagecolor="#ffffff"
     bordercolor="#666666"
     borderopacity="1"
     objecttolerance="10"
     gridtolerance="10"
     guidetolerance="10"
     inkscape:pageopacity="0"
     inkscape:pageshadow="2"
     inkscape:window-width="1920"
     inkscape:window-height="1017"
     id="namedview3715"
     showgrid="false"
     inkscape:zoom="1.2392578"
     inkscape:cx="210.20647"
     inkscape:cy="338.0007"
     inkscape:window-x="-8"
     inkscape:window-y="-8"
     inkscape:window-maximized="1"
     inkscape:current-layer="svg3713" />
  <path
     style="fill:#000000;stroke:#000000;stroke-width:1px;stroke-linecap:butt;stroke-linejoin:miter;stroke-opacity:1;fill-opacity:1"
     d="m 201.73365,119.42632 c 0,0 58.0993,40.34673 12.91096,98.44603 C 169.45627,275.97164 27.435777,450.26952 27.435777,450.26952 v 9.68321 c 0,0 31.47045,-9.68321 56.485423,-25.82191 25.01497,-16.13869 186.4019,-235.6249 186.4019,-235.6249 0,0 16.13869,-12.91096 17.75256,-30.66352 1.61387,-17.75256 -60.5201,-66.97557 -86.34201,-48.41608 z"
     id="path3723"
     inkscape:connector-curvature="0" />
  <path
     style="fill:#000000;stroke:#000000;stroke-width:1px;stroke-linecap:butt;stroke-linejoin:miter;stroke-opacity:1;fill-opacity:1"
     d="m 176.71868,568.88891 c 0,0 36.31206,-196.08512 29.85658,-208.18914 -6.45547,-12.10401 -12.10402,-38.73286 -12.10402,-38.73286 0,0 25.82191,4.03468 37.119,23.40111 11.29708,19.36643 -7.26242,61.32703 -7.26242,61.32703 l -10.49015,219.48621 c 0,0 -17.75256,6.45548 -20.17336,-9.68321 -2.42081,-16.13869 -16.94563,-47.60914 -16.94563,-47.60914 z"
     id="path3725"
     inkscape:connector-curvature="0" />
  <path
     style="fill:#000000;stroke:#000000;stroke-width:1px;stroke-linecap:butt;stroke-linejoin:miter;stroke-opacity:1;fill-opacity:1"
     d="m 403.46731,109.74311 c 0,0 -13.71789,16.13869 25.01497,26.62884 38.73286,10.49015 33.89126,127.49567 33.89126,127.49567 0,0 -70.20332,24.20804 -83.9212,23.4011 -13.71789,-0.80693 -25.01498,-14.52482 -26.62885,-21.78723 -1.61387,-7.26241 -16.94562,1.61387 -13.71788,6.45548 3.22773,4.8416 23.4011,85.53507 35.50512,82.30733 12.10402,-3.22774 44.3814,-10.49015 47.60914,-16.94563 3.22774,-6.45548 31.47045,-25.82191 44.3814,-20.17337 12.91096,5.64855 14.52483,83.11427 7.26242,88.76281 -7.26242,5.64855 -66.97558,20.17337 -68.58945,16.1387 -1.61387,-4.03468 -14.52482,-14.52483 -29.04964,-16.1387 -14.52483,-1.61387 -16.13869,35.50513 -16.13869,35.50513 0,0 12.91095,51.64381 33.08431,49.22301 20.17337,-2.42081 49.22302,-33.89126 64.55477,-34.69819 15.33176,-0.80694 44.38141,-16.13869 57.29236,-11.29709 12.91096,4.84161 79.07959,19.36644 86.34201,20.9803 7.26241,1.61387 22.59417,-3.22773 28.24271,-13.71788 5.64854,-10.49015 -2.42081,-44.38141 -15.33176,-45.99528 -12.91095,-1.61387 -57.29236,-14.52482 -66.16864,-12.10402 -8.87628,2.42081 -37.11899,9.68322 -32.27738,6.45548 4.8416,-3.22774 7.26241,-83.11427 1.61387,-100.86683 -5.64855,-17.75256 36.31205,-15.33175 45.18833,-17.75256 8.87629,-2.4208 79.88653,-21.78723 83.9212,-29.04964 4.03468,-7.26242 3.22774,-37.119 -8.06934,-37.119 -11.29709,0 -61.32703,-11.29708 -66.16864,-6.45547 -4.84161,4.8416 -37.11899,34.69818 -43.57447,37.11899 -6.45548,2.4208 -13.71789,10.49015 -16.13869,2.4208 -2.42081,-8.06934 10.49015,-98.44602 -0.80694,-100.05989 -11.29708,-1.61387 -0.80693,-21.78723 -107.3223,-38.73286 z"
     id="path4564"
     inkscape:connector-curvature="0" />
</svg>
