<?xml version="1.0" encoding="UTF-8" standalone="no"?>
<!-- Created with Inkscape (http://www.inkscape.org/) -->

<svg
   xmlns:dc="http://purl.org/dc/elements/1.1/"
   xmlns:cc="http://creativecommons.org/ns#"
   xmlns:rdf="http://www.w3.org/1999/02/22-rdf-syntax-ns#"
   xmlns:svg="http://www.w3.org/2000/svg"
   xmlns="http://www.w3.org/2000/svg"
   xmlns:sodipodi="http://sodipodi.sourceforge.net/DTD/sodipodi-0.dtd"
   xmlns:inkscape="http://www.inkscape.org/namespaces/inkscape"
   version="1.1"
   id="svg5121"
   width="512"
   height="512"
   viewBox="0 0 512 512"
   sodipodi:docname="U+53BB.svg"
   inkscape:version="0.92.4 (5da689c313, 2019-01-14)">
  <metadata
     id="metadata5127">
    <rdf:RDF>
      <cc:Work
         rdf:about="">
        <dc:format>image/svg+xml</dc:format>
        <dc:type
           rdf:resource="http://purl.org/dc/dcmitype/StillImage" />
        <dc:title></dc:title>
      </cc:Work>
    </rdf:RDF>
  </metadata>
  <defs
     id="defs5125" />
  <sodipodi:namedview
     pagecolor="#ffffff"
     bordercolor="#666666"
     borderopacity="1"
     objecttolerance="10"
     gridtolerance="10"
     guidetolerance="10"
     inkscape:pageopacity="0"
     inkscape:pageshadow="2"
     inkscape:window-width="1920"
     inkscape:window-height="1017"
     id="namedview5123"
     showgrid="false"
     inkscape:zoom="1"
     inkscape:cx="277.42084"
     inkscape:cy="217.50236"
     inkscape:window-x="-8"
     inkscape:window-y="-8"
     inkscape:window-maximized="1"
     inkscape:current-layer="svg5121" />
  <path
     style="fill:#000000;stroke:#000000;stroke-width:1px;stroke-linecap:butt;stroke-linejoin:miter;stroke-opacity:1;fill-opacity:1"
     d="m 217,119 c 0,0 15,21 16,33 1,12 -24,25 -40,25 -16,0 -48,10 -50,3 -2,-7 19,48 37,44 18,-4 56,-43 57,-25 1,18 4,53 -8,56 -12,3 -155,39 -155,39 0,0 0,35 20,33 20,-2 9,6 43,-12 34,-18 68,-32 72,-29 4,3 16,5 5,22 -11,17 -33,54 -32,65 1,11 8,46 18,43 10,-3 100,-58 106,-53 6,5 20,50 34,43 14,-7 30,1 28,-14 -2,-15 -24,-57 -36,-62 -12,-5 -31,-5 -40,-19 -9,-14 -16,-14 -14,3 2,17 21,32 14,33 -7,1 -59,25 -63,19 -4,-6 8,-26 17,-34 9,-8 21,-14 14,-22 -7,-8 -41,-34 -32,-28 9,6 70,-27 96,-27 26,0 46,16 62,12 16,-4 24,-20 10,-26 -14,-6 -51,-25 -58,-18 -7,7 -12,16 -18,18 -6,2 -66,21 -56,11 10,-10 -8,-63 7,-68 15,-5 63,-8 54,-22 -9,-14 -28,-19 -39,-18 -11,1 -6,-15 -18,-21 -12,-6 -24,-17 -36,-17 -12,0 -23,2 -15,13 z"
     id="path5674"
     inkscape:connector-curvature="0" />
</svg>
