<?xml version="1.0" encoding="UTF-8" standalone="no"?>
<!-- Created with Inkscape (http://www.inkscape.org/) -->

<svg
   xmlns:dc="http://purl.org/dc/elements/1.1/"
   xmlns:cc="http://creativecommons.org/ns#"
   xmlns:rdf="http://www.w3.org/1999/02/22-rdf-syntax-ns#"
   xmlns:svg="http://www.w3.org/2000/svg"
   xmlns="http://www.w3.org/2000/svg"
   xmlns:sodipodi="http://sodipodi.sourceforge.net/DTD/sodipodi-0.dtd"
   xmlns:inkscape="http://www.inkscape.org/namespaces/inkscape"
   version="1.1"
   id="svg5082"
   width="544"
   height="544"
   viewBox="0 0 544 544"
   sodipodi:docname="U+5B58.svg"
   inkscape:version="0.92.4 (5da689c313, 2019-01-14)">
  <metadata
     id="metadata5088">
    <rdf:RDF>
      <cc:Work
         rdf:about="">
        <dc:format>image/svg+xml</dc:format>
        <dc:type
           rdf:resource="http://purl.org/dc/dcmitype/StillImage" />
        <dc:title></dc:title>
      </cc:Work>
    </rdf:RDF>
  </metadata>
  <defs
     id="defs5086" />
  <sodipodi:namedview
     pagecolor="#ffffff"
     bordercolor="#666666"
     borderopacity="1"
     objecttolerance="10"
     gridtolerance="10"
     guidetolerance="10"
     inkscape:pageopacity="0"
     inkscape:pageshadow="2"
     inkscape:window-width="1920"
     inkscape:window-height="1017"
     id="namedview5084"
     showgrid="false"
     inkscape:zoom="1"
     inkscape:cx="44.32"
     inkscape:cy="224.60474"
     inkscape:window-x="-8"
     inkscape:window-y="-8"
     inkscape:window-maximized="1"
     inkscape:current-layer="svg5082" />
  <path
     style="fill:#000000;stroke:#000000;stroke-width:1px;stroke-linecap:butt;stroke-linejoin:miter;stroke-opacity:1;fill-opacity:1"
     d="m 307,9 c 0,0 -11,7 -8,14 3,7 17,46 11,58 -6,12 -86,196 -86,196 L 125,424 34,532 c 0,0 23,-15 36,-24 13,-9 55,-46 63,-59 8,-13 59,-86 62,-91 3,-5 104,-189 104,-189 0,0 43,-114 34,-116 -9,-2 -3,-37 -11,-40 -8,-3 -15,-4 -15,-4 z"
     id="path7886"
     inkscape:connector-curvature="0" />
  <path
     style="fill:#000000;stroke:#000000;stroke-width:1px;stroke-linecap:butt;stroke-linejoin:miter;stroke-opacity:1;fill-opacity:1"
     d="m 327,18 c 0,0 57,33 43,51 -14,18 -124,75 -124,75 0,0 -39,-20 -48,-36 -9,-16 19,6 39,7 20,1 107,-25 118,-40 C 366,60 365,53 347,43 329,33 327,18 327,18 Z"
     id="path7890"
     inkscape:connector-curvature="0" />
  <path
     style="fill:#000000;stroke:#000000;stroke-width:1px;stroke-linecap:butt;stroke-linejoin:miter;stroke-opacity:1;fill-opacity:1"
     d="m 185,191 16,185 c 0,0 -9,79 -13,79 -4,0 28,45 28,45 0,0 7,-140 19,-137 12,3 -19,10 -19,10 l 2,-111 z"
     id="path7892"
     inkscape:connector-curvature="0" />
  <path
     style="fill:#000000;stroke:#000000;stroke-width:1px;stroke-linecap:butt;stroke-linejoin:miter;stroke-opacity:1;fill-opacity:1"
     d="m 292,210 c 13,15 9,15 13,15 4,0 51,-31 52,-39 1,-8 -3,-20 4,-20 7,0 30,-2 41,2 11,4 -24,89 -19,101 5,12 7,31 7,37 0,6 14,104 14,104 0,0 -34,118 -49,120 -15,2 -56,-46 -75,-58 -19,-12 -43,-66 -28,-58 15,8 78,58 89,50 11,-8 33,-27 28,-37 -5,-10 30,-35 13,-73 -17,-38 -56,-81 -45,-85 11,-4 28,3 32,-3 4,-6 24,-88 11,-78 -13,10 -47,66 -53,61 -6,-5 -39,-6 -43,-25 -4,-19 8,-14 8,-14 z"
     id="path7894"
     inkscape:connector-curvature="0" />
  <path
     style="fill:#000000;stroke:#000000;stroke-width:1px;stroke-linecap:butt;stroke-linejoin:miter;stroke-opacity:1;fill-opacity:1"
     d="m 258,332 c 0,0 162,-43 175,-40 13,3 32,2 48,16 16,14 33,29 19,33 -14,4 -51,-13 -67,-7 -16,6 -77,-1 -81,8 -4,9 -58,31 -69,39 -11,8 -37,-20 -25,-49 z"
     id="path7896"
     inkscape:connector-curvature="0" />
</svg>
