<?xml version="1.0" encoding="UTF-8" standalone="no"?>
<!-- Created with Inkscape (http://www.inkscape.org/) -->

<svg
   xmlns:dc="http://purl.org/dc/elements/1.1/"
   xmlns:cc="http://creativecommons.org/ns#"
   xmlns:rdf="http://www.w3.org/1999/02/22-rdf-syntax-ns#"
   xmlns:svg="http://www.w3.org/2000/svg"
   xmlns="http://www.w3.org/2000/svg"
   xmlns:sodipodi="http://sodipodi.sourceforge.net/DTD/sodipodi-0.dtd"
   xmlns:inkscape="http://www.inkscape.org/namespaces/inkscape"
   version="1.1"
   id="svg7898"
   width="512"
   height="512"
   viewBox="0 0 511.99999 511.99999"
   sodipodi:docname="U+5F9E.svg"
   inkscape:version="0.92.4 (5da689c313, 2019-01-14)">
  <metadata
     id="metadata7904">
    <rdf:RDF>
      <cc:Work
         rdf:about="">
        <dc:format>image/svg+xml</dc:format>
        <dc:type
           rdf:resource="http://purl.org/dc/dcmitype/StillImage" />
        <dc:title></dc:title>
      </cc:Work>
    </rdf:RDF>
  </metadata>
  <defs
     id="defs7902" />
  <sodipodi:namedview
     pagecolor="#ffffff"
     bordercolor="#666666"
     borderopacity="1"
     objecttolerance="10"
     gridtolerance="10"
     guidetolerance="10"
     inkscape:pageopacity="0"
     inkscape:pageshadow="2"
     inkscape:window-width="1920"
     inkscape:window-height="1017"
     id="namedview7900"
     showgrid="false"
     units="px"
     inkscape:zoom="1"
     inkscape:cx="356"
     inkscape:cy="196"
     inkscape:window-x="-8"
     inkscape:window-y="-8"
     inkscape:window-maximized="1"
     inkscape:current-layer="svg7898" />
  <path
     style="fill:#000000;stroke:#000000;stroke-width:1px;stroke-linecap:butt;stroke-linejoin:miter;stroke-opacity:1;fill-opacity:1"
     d="m 232,135 c 0,0 6,11 -13,27 -19,16 20,15 20,15 0,0 33,-11 32,-16 -1,-5 -26,-28 -39,-26 z"
     id="path8451"
     inkscape:connector-curvature="0" />
  <path
     style="fill:#000000;stroke:#000000;stroke-width:1px;stroke-linecap:butt;stroke-linejoin:miter;stroke-opacity:1;fill-opacity:1"
     d="m 332,108 c 0,0 9,23 3,28 -6,5 -33,12 -27,17 6,5 1,3 8,6 7,3 25,-9 34,-7 9,2 33,5 30,1 -3,-4 -7,-34 -48,-45 z"
     id="path8453"
     inkscape:connector-curvature="0" />
  <path
     style="fill:#000000;stroke:#000000;stroke-width:1px;stroke-linecap:butt;stroke-linejoin:miter;stroke-opacity:1;fill-opacity:1"
     d="m 129,207 c 0,0 13,-1 22,6 9,7 181,-26 181,-26 0,0 -158,49 -163,54 -5,5 -12,12 -12,12 0,0 -37,-45 -28,-46 z"
     id="path8455"
     inkscape:connector-curvature="0" />
  <path
     style="fill:#000000;stroke:#000000;stroke-width:1px;stroke-linecap:butt;stroke-linejoin:miter;stroke-opacity:1;fill-opacity:1"
     d="m 394,165 c 0,0 -3,12 -10,17 -7,5 -117,46 -117,46 l 14,2 c 0,0 -28,29 -30,22 -2,-7 2,-22 2,-22 0,0 -28,6 -30,17 -2,11 -10,34 4,36 14,2 71,-56 71,-56 0,0 23,-13 20,-6 -3,7 -46,48 -66,58 -20,10 -62,5 -79,2 -17,-3 -14,22 -14,22 0,0 7,2 32,0 25,-2 159,109 182,109 23,0 126,-24 126,-24 0,0 -145,-29 -171,-41 -26,-12 -97,-50 -97,-50 0,0 104,-44 106,-51 2,-7 12,-26 5,-27 -7,-1 78,-20 85,-15 7,5 7,-28 -6,-32 -13,-4 -27,-7 -27,-7 z"
     id="path8457"
     inkscape:connector-curvature="0" />
  <path
     style="fill:#000000;stroke:#000000;stroke-width:1px;stroke-linecap:butt;stroke-linejoin:miter;stroke-opacity:1;fill-opacity:1"
     d="m 149,91 -16,22 31,4 z"
     id="path8459"
     inkscape:connector-curvature="0" />
  <path
     style="fill:#000000;stroke:#000000;stroke-width:1px;stroke-linecap:butt;stroke-linejoin:miter;stroke-opacity:1;fill-opacity:1"
     d="m 90,111 c 0,0 22,7 43,2 21,-5 24,38 24,38 l -51,11 c 0,0 -7,-20 -1,-21 6,-1 -15,-30 -15,-30 z"
     id="path8461"
     inkscape:connector-curvature="0" />
  <path
     style="fill:#000000;stroke:#000000;stroke-width:1px;stroke-linecap:butt;stroke-linejoin:miter;stroke-opacity:1;fill-opacity:1"
     d="m 63,204 -8,37 c 0,0 23,21 30,21 7,0 -1,107 -16,103 -15,-4 -22,-19 -22,-19 l -1,68 c 0,0 34,-19 35,-26 1,-7 38,-99 38,-99 0,0 -38,-88 -56,-85 z"
     id="path8463"
     inkscape:connector-curvature="0" />
</svg>
