<?xml version="1.0" encoding="UTF-8" standalone="no"?>
<!-- Created with Inkscape (http://www.inkscape.org/) -->

<svg
   xmlns:osb="http://www.openswatchbook.org/uri/2009/osb"
   xmlns:dc="http://purl.org/dc/elements/1.1/"
   xmlns:cc="http://creativecommons.org/ns#"
   xmlns:rdf="http://www.w3.org/1999/02/22-rdf-syntax-ns#"
   xmlns:svg="http://www.w3.org/2000/svg"
   xmlns="http://www.w3.org/2000/svg"
   xmlns:sodipodi="http://sodipodi.sourceforge.net/DTD/sodipodi-0.dtd"
   xmlns:inkscape="http://www.inkscape.org/namespaces/inkscape"
   version="1.1"
   id="svg815"
   width="512"
   height="558"
   viewBox="0 0 512 558"
   sodipodi:docname="U+651D.svg"
   inkscape:version="0.92.4 (5da689c313, 2019-01-14)">
  <metadata
     id="metadata821">
    <rdf:RDF>
      <cc:Work
         rdf:about="">
        <dc:format>image/svg+xml</dc:format>
        <dc:type
           rdf:resource="http://purl.org/dc/dcmitype/StillImage" />
        <dc:title></dc:title>
      </cc:Work>
    </rdf:RDF>
  </metadata>
  <defs
     id="defs819">
    <linearGradient
       id="linearGradient2273"
       osb:paint="solid">
      <stop
         style="stop-color:#483263;stop-opacity:1;"
         offset="0"
         id="stop2271" />
    </linearGradient>
  </defs>
  <sodipodi:namedview
     pagecolor="#ffffff"
     bordercolor="#666666"
     borderopacity="1"
     objecttolerance="10"
     gridtolerance="10"
     guidetolerance="10"
     inkscape:pageopacity="0"
     inkscape:pageshadow="2"
     inkscape:window-width="1920"
     inkscape:window-height="1017"
     id="namedview817"
     showgrid="false"
     inkscape:zoom="1.1370968"
     inkscape:cx="341.33334"
     inkscape:cy="266.46809"
     inkscape:window-x="-8"
     inkscape:window-y="-8"
     inkscape:window-maximized="1"
     inkscape:current-layer="svg815" />
  <path
     style="fill:#000000;stroke:#000000;stroke-width:1px;stroke-linecap:butt;stroke-linejoin:miter;stroke-opacity:1;fill-opacity:1"
     d="m 103.77305,19.787234 c -5.276596,0 -11.432624,7.035461 -4.397163,13.191489 7.035463,6.156029 8.794323,150.382977 -1.758866,153.900707 -10.553191,3.51773 -72.992908,18.46809 -80.907801,14.07092 -7.9148938,-4.39716 -19.3475179,-5.27659 -6.156029,11.43263 13.19149,16.70922 28.141844,32.53901 35.177305,32.53901 7.035461,0 25.503547,-14.07093 36.056738,-15.82979 10.553192,-1.75887 17.588653,-3.51773 14.070922,6.15603 -3.51773,9.67376 3.517731,80.02837 -6.156028,83.5461 -9.673759,3.51773 -44.851064,39.57446 -53.64539,40.4539 -8.794327,0.87943 -31.6595749,2.63829 -30.7801423,6.15603 0.8794327,3.51773 -7.9148936,18.46808 7.0354613,26.38297 14.950354,7.9149 26.382978,26.38298 29.900709,12.31206 3.51773,-14.07092 35.177305,-52.76596 43.092199,-58.04255 7.914893,-5.2766 7.914893,-9.67376 5.276595,3.51773 -2.638298,13.19149 11.43262,46.60993 1.758866,53.64539 -9.673759,7.03546 2.638297,14.95035 -12.312057,8.79432 -14.950355,-6.15602 -34.297873,-22.86524 -32.539007,-11.43262 1.758865,11.43262 49.248227,75.63121 53.645388,83.5461 4.39716,7.91489 18.46809,13.19149 19.34752,-2.6383 0.87943,-15.82979 -19.34752,-160.93617 -7.91489,-167.0922 11.43262,-6.15603 47.48936,-36.05673 41.33333,-40.4539 -6.15603,-4.39716 7.91489,-17.58865 -0.87943,-11.43262 -8.79433,6.15603 -35.17731,33.41844 -38.69504,31.65957 -3.51773,-1.75886 -18.468084,-61.56028 -4.39716,-67.71631 14.07092,-6.15603 45.73049,-5.2766 44.85106,-17.58865 -0.87943,-12.31206 -22.86525,-17.58865 -29.02127,-20.22695 -6.15603,-2.6383 -15.82979,-27.26241 -7.9149,-36.93617 7.9149,-9.67376 21.98582,-111.687946 27.26241,-108.170215 5.2766,3.51773 3.51773,-12.312057 -4.39716,-17.588653 -7.91489,-5.276595 -36.93617,-6.156028 -36.93617,-6.156028 z"
     id="path825"
     inkscape:connector-curvature="0" />
  <path
     style="fill:#000000;stroke:#000000;stroke-width:1px;stroke-linecap:butt;stroke-linejoin:miter;stroke-opacity:1;fill-opacity:1"
     d="m 216.34043,283.61702 c 0,0 16.70922,-7.03546 26.38297,-2.6383 9.67376,4.39717 21.10639,0.87944 9.67376,5.2766 -11.43262,4.39716 0.87944,16.70922 -14.95035,8.79433 -15.82979,-7.9149 -21.10638,-11.43263 -21.10638,-11.43263 z"
     id="path829"
     inkscape:connector-curvature="0" />
  <path
     style="fill:#000000;stroke:#000000;stroke-width:1px;stroke-linecap:butt;stroke-linejoin:miter;stroke-opacity:1;fill-opacity:1"
     d="m 228.65248,322.31206 c 7.03546,-0.87944 0.87943,-14.95036 12.31206,-7.03546 11.43262,7.91489 29.90071,6.15602 23.74468,8.79432 -6.15603,2.6383 -10.55319,16.70922 -21.10638,14.07092 -10.55319,-2.63829 -14.95036,-10.55319 -14.95036,-10.55319 z"
     id="path831"
     inkscape:connector-curvature="0" />
  <path
     style="fill:#000000;stroke:#000000;stroke-width:1px;stroke-linecap:butt;stroke-linejoin:miter;stroke-opacity:1;fill-opacity:1"
     d="m 350.89362,248.43972 c 0,0 5.27659,22.86524 13.19149,19.34751 7.91489,-3.51773 21.10638,-12.31205 14.95035,-16.70922 -6.15603,-4.39716 -28.14184,-2.63829 -28.14184,-2.63829 z"
     id="path835"
     inkscape:connector-curvature="0" />
  <path
     style="fill:#000000;stroke:#000000;stroke-width:1px;stroke-linecap:butt;stroke-linejoin:miter;stroke-opacity:1;fill-opacity:1"
     d="m 388.70922,215.90071 31.65957,-2.6383 c 0,0 64.19859,16.70922 72.99291,14.07092 8.79433,-2.63829 7.03546,-4.39716 2.6383,-14.95035 -4.39716,-10.55319 -24.62411,-18.46809 -29.02128,-18.46809 -4.39716,0 -56.28368,0.87944 -60.68085,1.75887 -4.39716,0.87943 -37.8156,12.31206 -47.48936,11.43262 -9.67376,-0.87943 -25.50355,13.19149 -17.58865,2.6383 7.91489,-10.55319 13.19149,-18.46808 16.70922,-28.14184 3.51773,-9.67376 9.67376,-58.92199 9.67376,-58.92199 0,0 4.39716,-3.51773 -4.39717,-7.91489 -8.79432,-4.39717 -43.09219,-11.43263 -43.09219,-11.43263 l 1.75886,8.79433 c 0,0 -26.38298,18.46808 -32.53901,19.34752 -6.15603,0.87943 -9.67376,5.27659 -15.82978,1.75886 -6.15603,-3.51773 -18.46809,0 -7.03546,11.43263 11.43262,11.43262 14.07092,21.98581 22.86524,19.34751 8.79433,-2.63829 38.69504,-40.4539 38.69504,-40.4539 0,0 6.15603,0 7.03546,7.9149 0.87943,7.91489 -3.51773,55.40425 -6.15603,68.59574 -2.6383,13.19149 -23.74468,18.46809 -29.02128,17.58865 -5.27659,-0.87943 -47.48936,7.9149 -47.48936,7.9149 0,0 -1.75886,-70.35461 -7.91489,-79.14894 -6.15603,-8.79432 -23.74468,-24.62411 -19.34752,-25.50354 4.39716,-0.87944 43.97163,-16.70922 53.64539,-16.70922 9.67376,0 98.49646,-28.141848 110.80851,-22.865252 12.31206,5.276595 23.74468,11.432624 31.65958,1.758865 7.91489,-9.673759 19.34751,-13.191489 11.43262,-18.468085 -7.91489,-5.276596 -16.70922,-3.517731 -23.74468,-4.397163 -7.03546,-0.879433 -14.07092,-2.638298 -19.34752,-2.638298 -5.27659,0 -7.91489,5.276596 -11.43262,7.035461 -3.51773,1.758865 -146.86525,44.851062 -150.38298,42.212762 -3.51773,-2.63829 -2.6383,0.87944 -7.91489,-7.035457 -5.2766,-7.914894 -7.9149,-13.19149 -8.79433,-0.879433 -0.87943,12.31206 -3.51773,7.03546 -7.03546,12.31206 -3.51773,5.27659 -3.51773,3.51773 -6.15603,26.38298 -2.6383,22.86524 2.6383,-3.51773 13.19149,11.43262 10.55319,14.95035 26.38298,72.11347 17.58865,76.51064 -8.79432,4.39716 -38.69503,30.78014 -53.64539,26.38298 -14.95035,-4.39717 -43.0922,-13.19149 -33.41844,-1.75887 9.67376,11.43263 13.19149,22.86525 31.65958,28.14185 18.46808,5.27659 34.29787,-11.43263 45.73049,-15.82979 11.43263,-4.39716 13.19149,-11.43263 21.10639,-7.9149 7.91489,3.51774 1.75886,13.19149 8.79432,10.5532 7.03546,-2.6383 10.55319,-15.82979 13.19149,-3.51773 2.6383,12.31205 14.07092,34.29787 12.31206,53.64539 -1.75887,19.34751 -13.19149,30.78014 -24.62411,39.57446 -11.43263,8.79433 0,7.9149 -13.19149,14.07093 -13.19149,6.15602 -18.46809,19.34751 -19.34752,13.19149 -0.87943,-6.15603 -4.39717,-77.39007 -2.6383,-87.94327 1.75887,-10.55319 -10.55319,-12.31205 -20.22695,-11.43262 -9.67376,0.87943 -11.43262,42.21276 -10.55319,54.52482 0.87943,12.31206 7.91489,53.64539 14.07092,55.40426 6.15603,1.75886 -21.98582,16.70922 -31.65957,18.46808 -9.67376,1.75887 -21.98582,1.75887 -11.43263,10.55319 10.55319,8.79433 13.19149,13.19149 27.26241,11.43263 14.07093,-1.75887 84.42554,-82.66667 88.8227,-84.42553 4.39716,-1.75887 14.07092,-13.19149 6.15603,8.79432 -7.9149,21.98582 -29.02128,31.65958 -20.22695,39.57447 8.79432,7.91489 19.34751,14.95035 22.86524,8.79433 3.51773,-6.15603 1.75887,-36.93617 9.67376,-22.86525 7.9149,14.07092 17.58866,24.62411 23.74468,21.98581 6.15603,-2.63829 18.46809,-29.02127 29.02128,-29.90071 10.55319,-0.87943 22.86525,-17.58865 38.69504,-16.70922 15.82978,0.87944 19.34751,24.62412 15.82978,45.7305 -3.51773,21.10638 7.03546,112.56738 0,108.17021 -7.03546,-4.39716 -16.70922,-26.38298 -9.67376,0 7.03547,26.38298 3.51774,35.17731 14.95036,36.05674 11.43262,0.87943 22.86525,-7.91489 25.50355,-14.95035 2.63829,-7.03546 -21.98582,-97.61702 -14.07093,-114.32624 7.9149,-16.70922 -7.91489,-64.19859 -1.75886,-64.19859 6.15603,0 21.98581,0 28.14184,-6.15602 6.15603,-6.15603 -2.6383,-13.19149 -8.79432,-13.19149 -6.15603,0 -22.86525,4.39716 -19.34752,-2.6383 3.51773,-7.03546 13.19149,-91.46099 14.07092,-98.49646 0.87943,-7.03546 -14.95035,-18.46808 -14.95035,-18.46808 0,0 -42.21277,0.87943 -32.53901,14.95035 9.67376,14.07093 12.31206,16.70922 14.07092,21.98582 1.75887,5.2766 8.79433,89.70213 0.87943,89.70213 -7.91489,0 -50.12766,23.74468 -52.76595,15.82978 -2.6383,-7.91489 -19.34752,-51.88652 0,-41.33333 19.34751,10.55319 24.62411,27.26241 31.65957,17.58865 7.03546,-9.67376 9.67376,-21.10638 -6.15603,-29.90071 -15.82979,-8.79432 -28.14184,13.19149 -31.65957,1.75887 -3.51773,-11.43262 3.51773,-33.41844 3.51773,-42.21277 0,-8.79432 10.55319,-3.51773 -0.87943,-12.31205 -11.43263,-8.79433 -11.43263,-14.07093 -21.10639,-10.55319 -9.67376,3.51773 -8.79432,14.95035 -0.87943,22.86524 7.91489,7.9149 4.39716,43.0922 6.15603,59.80142 1.75886,16.70922 11.43262,41.33334 4.39716,42.21277 -7.03546,0.87943 -14.07092,15.82979 -21.10638,11.43262 -7.03546,-4.39716 -21.10639,-6.15603 -17.58865,-7.91489 3.51773,-1.75887 13.19148,-87.94326 7.03546,-100.25532 -6.15603,-12.31206 -3.51773,-14.07092 -14.07093,-17.58865 -10.55319,-3.51773 -23.74468,0 -22.86524,-3.51773 0.87943,-3.51773 5.27659,-11.43263 14.95035,-11.43263 9.67376,0 8.79433,0 24.62411,-2.6383 15.82979,-2.63829 35.17731,-12.31205 44.85107,-12.31205 9.67376,0 47.48936,-6.15603 47.48936,-6.15603 z"
     id="path2311"
     inkscape:connector-curvature="0" />
  <path
     style="fill:#000000;stroke:#000000;stroke-width:1px;stroke-linecap:butt;stroke-linejoin:miter;stroke-opacity:1;fill-opacity:1"
     d="m 264.70922,182.48227 c 5.2766,0.87943 48.36879,-11.43262 48.36879,-11.43262 0,0 10.5532,-4.39717 7.03547,4.39716 -3.51774,8.79432 -18.46809,18.46808 -24.62412,26.38298 -6.15603,7.91489 -14.95035,7.03546 -21.98581,2.6383 -7.03546,-4.39717 -8.79433,-21.98582 -8.79433,-21.98582 z"
     id="path2313"
     inkscape:connector-curvature="0" />
</svg>
