<?xml version="1.0" encoding="UTF-8" standalone="no"?>
<!-- Created with Inkscape (http://www.inkscape.org/) -->

<svg
   xmlns:dc="http://purl.org/dc/elements/1.1/"
   xmlns:cc="http://creativecommons.org/ns#"
   xmlns:rdf="http://www.w3.org/1999/02/22-rdf-syntax-ns#"
   xmlns:svg="http://www.w3.org/2000/svg"
   xmlns="http://www.w3.org/2000/svg"
   xmlns:sodipodi="http://sodipodi.sourceforge.net/DTD/sodipodi-0.dtd"
   xmlns:inkscape="http://www.inkscape.org/namespaces/inkscape"
   version="1.1"
   id="svg2315"
   width="571"
   height="534"
   viewBox="0 0 571 534"
   sodipodi:docname="U+653F.svg"
   inkscape:version="0.92.4 (5da689c313, 2019-01-14)">
  <metadata
     id="metadata2321">
    <rdf:RDF>
      <cc:Work
         rdf:about="">
        <dc:format>image/svg+xml</dc:format>
        <dc:type
           rdf:resource="http://purl.org/dc/dcmitype/StillImage" />
        <dc:title></dc:title>
      </cc:Work>
    </rdf:RDF>
  </metadata>
  <defs
     id="defs2319" />
  <sodipodi:namedview
     pagecolor="#ffffff"
     bordercolor="#666666"
     borderopacity="1"
     objecttolerance="10"
     gridtolerance="10"
     guidetolerance="10"
     inkscape:pageopacity="0"
     inkscape:pageshadow="2"
     inkscape:window-width="1920"
     inkscape:window-height="1017"
     id="namedview2317"
     showgrid="false"
     inkscape:zoom="1"
     inkscape:cx="380.66666"
     inkscape:cy="356"
     inkscape:window-x="-8"
     inkscape:window-y="-8"
     inkscape:window-maximized="1"
     inkscape:current-layer="svg2315" />
  <path
     style="fill:#000000;stroke:#000000;stroke-width:1px;stroke-linecap:butt;stroke-linejoin:miter;stroke-opacity:1;fill-opacity:1"
     d="m 52,134 c 6,0 48,-2 57,-7 9,-5 27,-32 34,-28 7,4 34,1 35,10 1,9 -5,25 -23,27 -18,2 -25,10 -35,22 -10,12 -30,32 -40,27 -10,-5 -38,-54 -28,-51 z"
     id="path2868"
     inkscape:connector-curvature="0" />
  <path
     style="fill:#000000;stroke:#000000;stroke-width:1px;stroke-linecap:butt;stroke-linejoin:miter;stroke-opacity:1;fill-opacity:1"
     d="m 13,224 c 6,1 34,-2 44,23 10,25 22,70 16,84 -6,14 -6,23 -1,16 5,-7 11,-9 25,-19 14,-10 50,-17 51,-24 1,-7 28,-30 3,-18 -25,12 -40,18 -48,16 -8,-2 -21,-38 -17,-38 4,0 16,5 24,0 8,-5 70,-36 76,-41 6,-5 17,-14 27,-24 10,-10 24,-32 15,-16 -9,16 -25,32 -17,38 8,6 42,20 42,34 0,14 44,41 44,41 0,0 15,-44 11,-51 -4,-7 -12,-28 -12,-35 0,-7 21,16 21,16 0,0 21,24 17,34 -4,10 -14,50 -14,50 0,0 119,71 130,71 11,0 75,14 75,14 0,0 9,0 12,0 3,0 13,0 13,0 0,0 16,11 -19,14 -35,3 -118,17 -122,15 -4,-2 -36,-34 -44,-36 -8,-2 -65,-55 -71,-42 -6,13 -25,36 -33,40 -8,4 -33,26 -45,21 -12,-5 -28,3 -25,-3 3,-6 32,-24 43,-27 11,-3 54,-38 50,-43 -4,-5 -2,-9 -18,-22 -16,-13 -33,-52 -36,-55 -3,-3 -9,-25 -15,-25 -6,0 2,-7 -11,0 -13,7 -38,48 -38,48 0,0 16,24 20,33 4,9 14,27 4,31 -10,4 -51,6 -58,14 -7,8 -34,18 -42,29 -8,11 -21,22 -27,22 -6,0 -14,-2 -20,-5 -6,-3 -20,-28 -20,-37 0,-9 4,-10 10,-14 6,-4 5,-10 5,-17 0,-7 -11,-77 -11,-77 0,0 -4,-9 -8,-15 -4,-6 -6,-20 -6,-20 z"
     id="path2870"
     inkscape:connector-curvature="0" />
  <path
     style="fill:#000000;stroke:#000000;stroke-width:1px;stroke-linecap:butt;stroke-linejoin:miter;stroke-opacity:1;fill-opacity:1"
     d="m 267,81 c 0,0 17,23 13,32 -4,9 -5,62 -12,70 -7,8 -13,29 -18,21 -5,-8 -6,-13 -7,-3 -1,10 -15,28 -7,32 8,4 29,-2 30,-13 1,-11 42,-76 42,-84 0,-8 -2,-42 -7,-45 -5,-3 -26,-10 -34,-10 z"
     id="path2872"
     inkscape:connector-curvature="0" />
  <path
     style="fill:#000000;stroke:#000000;stroke-width:1px;stroke-linecap:butt;stroke-linejoin:miter;stroke-opacity:1;fill-opacity:1"
     d="m 335,169 c 16,-6 105,-32 105,-32 0,0 -43,24 -47,26 -4,2 -44,29 -51,28 -7,-1 -28,1 -33,-5 -5,-6 26,-17 26,-17 z"
     id="path2874"
     inkscape:connector-curvature="0" />
</svg>
