<?xml version="1.0" encoding="UTF-8" standalone="no"?>
<!-- Created with Inkscape (http://www.inkscape.org/) -->

<svg
   xmlns:dc="http://purl.org/dc/elements/1.1/"
   xmlns:cc="http://creativecommons.org/ns#"
   xmlns:rdf="http://www.w3.org/1999/02/22-rdf-syntax-ns#"
   xmlns:svg="http://www.w3.org/2000/svg"
   xmlns="http://www.w3.org/2000/svg"
   xmlns:sodipodi="http://sodipodi.sourceforge.net/DTD/sodipodi-0.dtd"
   xmlns:inkscape="http://www.inkscape.org/namespaces/inkscape"
   version="1.1"
   id="svg3713"
   width="512"
   height="512"
   viewBox="0 0 512 512"
   sodipodi:docname="U+6A02.svg"
   inkscape:version="0.92.4 (5da689c313, 2019-01-14)">
  <metadata
     id="metadata3719">
    <rdf:RDF>
      <cc:Work
         rdf:about="">
        <dc:format>image/svg+xml</dc:format>
        <dc:type
           rdf:resource="http://purl.org/dc/dcmitype/StillImage" />
        <dc:title></dc:title>
      </cc:Work>
    </rdf:RDF>
  </metadata>
  <defs
     id="defs3717" />
  <sodipodi:namedview
     pagecolor="#ffffff"
     bordercolor="#666666"
     borderopacity="1"
     objecttolerance="10"
     gridtolerance="10"
     guidetolerance="10"
     inkscape:pageopacity="0"
     inkscape:pageshadow="2"
     inkscape:window-width="1920"
     inkscape:window-height="1017"
     id="namedview3715"
     showgrid="false"
     inkscape:zoom="1"
     inkscape:cx="33"
     inkscape:cy="220.32643"
     inkscape:window-x="-8"
     inkscape:window-y="-8"
     inkscape:window-maximized="1"
     inkscape:current-layer="svg3713" />
  <path
     style="fill:#000000;stroke:#000000;stroke-width:1px;stroke-linecap:butt;stroke-linejoin:miter;stroke-opacity:1;fill-opacity:1"
     d="m 127,120 c 0,0 5,17 23,24 18,7 -23,50 -34,49 -11,-1 -33,29 -9,35 24,6 71,-25 63,-30 -8,-5 -32,-2 -32,-2 0,0 44,-43 41,-47 -3,-4 -5,-39 -52,-29 z"
     id="path3723"
     inkscape:connector-curvature="0" />
  <path
     style="fill:#000000;stroke:#000000;stroke-width:1px;stroke-linecap:butt;stroke-linejoin:miter;stroke-opacity:1;fill-opacity:1"
     d="m 224,30 c 0,0 9,63 2,68 -7,5 -27,-18 -27,-18 0,0 -14,4 2,38 16,34 17,126 17,126 l 66,-24 c 0,0 38,-142 29,-148 -9,-6 -26,-4 -54,4 -28,8 11,-28 11,-28 0,0 -33,-26 -46,-18 z"
     id="path3725"
     inkscape:connector-curvature="0" />
  <path
     style="fill:#ffffff;stroke:#000000;stroke-width:1px;stroke-linecap:butt;stroke-linejoin:miter;stroke-opacity:1;fill-opacity:1"
     d="m 248,93 24,9 17,-18 -17,130 -32,7 -6,-35 38,-21 c 0,0 7,-27 -8,-24 -15,3 -24,18 -27,13 -3,-5 11,-61 11,-61 z"
     id="path3727"
     inkscape:connector-curvature="0" />
  <path
     style="fill:#000000;stroke:#000000;stroke-width:1px;stroke-linecap:butt;stroke-linejoin:miter;stroke-opacity:1;fill-opacity:1"
     d="m 187,173 c 0,0 -25,65 -35,66 -10,1 -33,3 -33,3 0,0 -3,30 11,24 14,-6 23,-6 23,-6 l -28,15 c 0,0 -1,20 14,9 15,-11 55,-37 55,-37 0,0 35,5 21,-13 -14,-18 -25,-18 -25,-18 v 21 c 0,0 -23,13 -25,8 -2,-5 41,-52 41,-52 0,0 -8,-20 -19,-20 z"
     id="path3729"
     inkscape:connector-curvature="0" />
  <path
     style="fill:#000000;stroke:#000000;stroke-width:1px;stroke-linecap:butt;stroke-linejoin:miter;stroke-opacity:1;fill-opacity:1"
     d="m 343,82 c 0,0 11,23 8,30 -3,7 -17,55 -25,55 -8,0 -24,14 -20,25 4,11 10,13 17,5 7,-8 22,-2 22,-2 l -23,29 c 0,0 -30,3 -11,20 19,17 21,2 21,2 l 44,-15 c 0,0 14,30 21,8 7,-22 -11,-34 -11,-34 l -23,-8 7,25 c 0,0 -28,11 -29,5 -1,-6 52,-57 52,-57 0,0 -2,-27 -23,-9 -21,18 -34,14 -34,14 l 38,-74 c 0,0 -19,-32 -31,-19 z"
     id="path3731"
     inkscape:connector-curvature="0" />
  <path
     style="fill:#000000;stroke:#000000;stroke-width:1px;stroke-linecap:butt;stroke-linejoin:miter;stroke-opacity:1;fill-opacity:1"
     d="m 218,244 -24,3 31,22 11,-16 22,2 c 0,0 12,24 7,23 -5,-1 -27,-15 -27,-15 l -16,8 15,17 c 0,0 -186,62 -198,52 -12,-10 -22,-21 -22,-21 0,0 -11,22 0,30 11,8 29,33 34,28 5,-5 75,-52 81,-49 6,3 109,-28 109,-28 0,0 13,103 9,103 -4,0 -41,-10 -41,-10 0,0 23,49 36,59 13,10 17,10 17,10 0,0 20,-53 10,-60 -10,-7 -5,-84 1,-83 6,1 12,-28 12,-28 0,0 24,7 25,1 1,-6 -5,-12 -15,-10 -10,2 -1,-60 -1,-60 z"
     id="path3733"
     inkscape:connector-curvature="0" />
  <path
     style="fill:#000000;stroke:#000000;stroke-width:1px;stroke-linecap:butt;stroke-linejoin:miter;stroke-opacity:1;fill-opacity:1"
     d="m 337,282 c 0,0 120,17 136,25 16,8 35,-14 27,-19 -8,-5 -51,-28 -76,-21 -25,7 -87,15 -87,15 z"
     id="path3737"
     inkscape:connector-curvature="0" />
  <path
     style="fill:#000000;stroke:#000000;stroke-width:1px;stroke-linecap:butt;stroke-linejoin:miter;stroke-opacity:1;fill-opacity:1"
     d="m 286,319 c 0,0 34,29 40,42 6,13 42,63 47,61 5,-2 22,-49 -20,-74 -42,-25 -67,-29 -67,-29 z"
     id="path3739"
     inkscape:connector-curvature="0" />
  <path
     style="fill:#000000;stroke:#000000;stroke-width:1px;stroke-linecap:butt;stroke-linejoin:miter;stroke-opacity:1;fill-opacity:1"
     d="m 182,324 c 0,0 -36,95 -15,98 21,3 46,-66 46,-66 l -22,1 -7,-29 z"
     id="path3741"
     inkscape:connector-curvature="0" />
</svg>
