<?xml version="1.0" encoding="UTF-8" standalone="no"?>
<!-- Created with Inkscape (http://www.inkscape.org/) -->

<svg
   xmlns:dc="http://purl.org/dc/elements/1.1/"
   xmlns:cc="http://creativecommons.org/ns#"
   xmlns:rdf="http://www.w3.org/1999/02/22-rdf-syntax-ns#"
   xmlns:svg="http://www.w3.org/2000/svg"
   xmlns="http://www.w3.org/2000/svg"
   xmlns:sodipodi="http://sodipodi.sourceforge.net/DTD/sodipodi-0.dtd"
   xmlns:inkscape="http://www.inkscape.org/namespaces/inkscape"
   version="1.1"
   id="svg815"
   width="512"
   height="512"
   viewBox="0 0 512 512"
   sodipodi:docname="U+6B8A.svg"
   inkscape:version="0.92.4 (5da689c313, 2019-01-14)">
  <metadata
     id="metadata821">
    <rdf:RDF>
      <cc:Work
         rdf:about="">
        <dc:format>image/svg+xml</dc:format>
        <dc:type
           rdf:resource="http://purl.org/dc/dcmitype/StillImage" />
        <dc:title></dc:title>
      </cc:Work>
    </rdf:RDF>
  </metadata>
  <defs
     id="defs819" />
  <sodipodi:namedview
     pagecolor="#ffffff"
     bordercolor="#666666"
     borderopacity="1"
     objecttolerance="10"
     gridtolerance="10"
     guidetolerance="10"
     inkscape:pageopacity="0"
     inkscape:pageshadow="2"
     inkscape:window-width="1920"
     inkscape:window-height="1017"
     id="namedview817"
     showgrid="false"
     inkscape:zoom="1"
     inkscape:cx="40.959999"
     inkscape:cy="320.96"
     inkscape:window-x="-8"
     inkscape:window-y="-8"
     inkscape:window-maximized="1"
     inkscape:current-layer="svg815" />
  <path
     style="fill:#000000;stroke:#000000;stroke-width:1px;stroke-linecap:butt;stroke-linejoin:miter;stroke-opacity:1;fill-opacity:1"
     d="m 20,162 c 0,0 168,-33 180,-42 12,-9 14,-19 23,-12 9,7 34,10 37,16 3,6 8,22 1,24 -7,2 -28,1 -34,0 -6,-1 -56,10 -56,10 0,0 17,-16 21,-20 4,-4 -125,48 -130,55 -5,7 -54,-30 -42,-31 z"
     id="path825"
     inkscape:connector-curvature="0" />
  <path
     style="fill:#000000;stroke:#000000;stroke-width:1px;stroke-linecap:butt;stroke-linejoin:miter;stroke-opacity:1;fill-opacity:1"
     d="m 49,286 c 8,0 74,-62 66,-82 -8,-20 -11,-19 -2,-21 9,-2 40,14 38,22 -2,8 -10,24 -3,24 7,0 30,8 23,27 -7,19 -63,151 -66,149 -3,-2 -33,27 -39,21 -6,-6 -35,-10 -31,-11 4,-1 56,-22 64,-35 8,-13 25,-45 25,-45 l -26,-44 35,6 c 0,0 20,-49 17,-49 -3,0 -12,-14 -22,-4 -10,10 -42,52 -48,52 -6,0 -33,12 -37,5 -4,-7 6,-15 6,-15 z"
     id="path827"
     inkscape:connector-curvature="0" />
  <path
     style="fill:#000000;stroke:#000000;stroke-width:1px;stroke-linecap:butt;stroke-linejoin:miter;stroke-opacity:1;fill-opacity:1"
     d="m 287,33 c 0,0 14,9 15,47 1,38 15,106 7,113 -8,7 -30,19 -38,15 -8,-4 -2,-18 -6,-21 -4,-3 -15,-10 -22,-10 -7,0 -9,-3 -7,5 2,8 -11,61 -16,58 -5,-3 18,1 25,-4 7,-5 7,-21 15,-19 8,2 24,14 34,12 10,-2 21,-16 18,-2 -3,14 -15,29 -20,28 -5,-1 -88,31 -94,30 -6,-1 -23,-4 -16,4 7,8 20,31 32,24 12,-7 23,-20 37,-26 14,-6 51,-19 51,-19 0,0 -31,78 -38,78 -7,0 -69,57 -72,54 -3,-3 31,15 51,-4 20,-19 61,-64 61,-64 0,0 10,-7 8,1 -2,8 -7,69 -7,69 0,0 -13,5 -20,-1 -7,-6 20,40 21,52 1,12 7,20 11,14 4,-6 12,-58 12,-73 0,-15 -4,-74 -4,-74 0,0 26,25 31,30 5,5 39,60 51,58 12,-2 79,-19 83,-22 4,-3 -3,-8 -14,-13 -11,-5 -157,-77 -152,-80 5,-3 -3,-33 2,-33 5,0 69,-13 74,-22 5,-9 -8,-21 -16,-18 -8,3 -51,24 -55,20 -4,-4 -13,-28 -6,-28 7,0 64,-21 58,-27 -6,-6 -14,-13 -39,-7 -25,6 -14,-117 -4,-121 10,-4 -56,-60 -51,-24 z"
     id="path831"
     inkscape:connector-curvature="0" />
</svg>
