<?xml version="1.0" encoding="UTF-8" standalone="no"?>
<!-- Created with Inkscape (http://www.inkscape.org/) -->

<svg
   xmlns:dc="http://purl.org/dc/elements/1.1/"
   xmlns:cc="http://creativecommons.org/ns#"
   xmlns:rdf="http://www.w3.org/1999/02/22-rdf-syntax-ns#"
   xmlns:svg="http://www.w3.org/2000/svg"
   xmlns="http://www.w3.org/2000/svg"
   xmlns:sodipodi="http://sodipodi.sourceforge.net/DTD/sodipodi-0.dtd"
   xmlns:inkscape="http://www.inkscape.org/namespaces/inkscape"
   version="1.1"
   id="svg4012"
   width="512"
   height="512"
   viewBox="0 0 512 512"
   sodipodi:docname="U+7518.svg"
   inkscape:version="0.92.4 (5da689c313, 2019-01-14)">
  <metadata
     id="metadata4018">
    <rdf:RDF>
      <cc:Work
         rdf:about="">
        <dc:format>image/svg+xml</dc:format>
        <dc:type
           rdf:resource="http://purl.org/dc/dcmitype/StillImage" />
        <dc:title></dc:title>
      </cc:Work>
    </rdf:RDF>
  </metadata>
  <defs
     id="defs4016" />
  <sodipodi:namedview
     pagecolor="#ffffff"
     bordercolor="#666666"
     borderopacity="1"
     objecttolerance="10"
     gridtolerance="10"
     guidetolerance="10"
     inkscape:pageopacity="0"
     inkscape:pageshadow="2"
     inkscape:window-width="1920"
     inkscape:window-height="1017"
     id="namedview4014"
     showgrid="false"
     inkscape:zoom="1"
     inkscape:cx="216.26447"
     inkscape:cy="200.96"
     inkscape:window-x="-8"
     inkscape:window-y="-8"
     inkscape:window-maximized="1"
     inkscape:current-layer="svg4012" />
  <path
     style="fill:#000000;stroke:#000000;stroke-width:1px;stroke-linecap:butt;stroke-linejoin:miter;stroke-opacity:1;fill-opacity:1"
     d="m 27,227 c 14,12 10,23 27,22 17,-1 60,-1 70,-7 10,-6 49,-2 49,-12 0,-10 -18,-58 -7,-52 11,6 29,6 37,13 8,7 21,14 23,21 2,7 -4,15 3,10 7,-5 82,-14 83,-21 1,-7 0,-70 -6,-75 -6,-5 -5,-3 -12,-14 -7,-11 0,-3 6,-7 6,-4 8,-7 21,2 13,9 29,24 31,31 2,7 -3,31 -10,39 -7,8 -12,24 -6,23 6,-1 33,-14 43,-15 10,-1 71,2 78,5 7,3 33,13 32,20 -1,7 2,14 -7,15 -9,1 -35,-6 -43,-9 -8,-3 -9,-10 -27,-7 -18,3 -82,7 -82,7 0,0 -17,143 -15,159 2,16 0,71 -4,84 -4,13 -13,18 -18,13 -5,-5 -2,-52 -8,-56 -6,-4 24,-193 24,-193 0,0 -89,12 -93,22 -4,10 -9,16 -6,32 3,16 -1,89 12,95 13,6 59,-1 59,-1 0,0 10,34 -1,38 -11,4 -56,6 -59,9 -3,3 2,25 -8,21 -10,-4 -40,-171 -36,-179 4,-8 -9,-6 -42,9 -33,15 -62,34 -72,30 -10,-4 -51,-52 -48,-57 3,-5 8,-20 12,-15 z"
     id="path4567"
     inkscape:connector-curvature="0" />
  <path
     style="fill:#000000;stroke:#000000;stroke-width:1px;stroke-linecap:butt;stroke-linejoin:miter;stroke-opacity:1;fill-opacity:1"
     d="m 223,289 c 0,0 4,27 17,35 13,8 12,25 21,13 9,-12 19,-42 20,-49 1,-7 -5,-14 -14,-11 -9,3 -26,21 -36,15 -10,-6 -8,-3 -8,-3 z"
     id="path4569"
     inkscape:connector-curvature="0" />
</svg>
