<?xml version="1.0" encoding="UTF-8" standalone="no"?>
<!-- Created with Inkscape (http://www.inkscape.org/) -->

<svg
   xmlns:dc="http://purl.org/dc/elements/1.1/"
   xmlns:cc="http://creativecommons.org/ns#"
   xmlns:rdf="http://www.w3.org/1999/02/22-rdf-syntax-ns#"
   xmlns:svg="http://www.w3.org/2000/svg"
   xmlns="http://www.w3.org/2000/svg"
   xmlns:sodipodi="http://sodipodi.sourceforge.net/DTD/sodipodi-0.dtd"
   xmlns:inkscape="http://www.inkscape.org/namespaces/inkscape"
   version="1.1"
   id="svg6235"
   width="512"
   height="512"
   viewBox="0 0 512 512"
   sodipodi:docname="U+76CA.svg"
   inkscape:version="0.92.4 (5da689c313, 2019-01-14)">
  <metadata
     id="metadata6241">
    <rdf:RDF>
      <cc:Work
         rdf:about="">
        <dc:format>image/svg+xml</dc:format>
        <dc:type
           rdf:resource="http://purl.org/dc/dcmitype/StillImage" />
        <dc:title></dc:title>
      </cc:Work>
    </rdf:RDF>
  </metadata>
  <defs
     id="defs6239" />
  <sodipodi:namedview
     pagecolor="#ffffff"
     bordercolor="#666666"
     borderopacity="1"
     objecttolerance="10"
     gridtolerance="10"
     guidetolerance="10"
     inkscape:pageopacity="0"
     inkscape:pageshadow="2"
     inkscape:window-width="1920"
     inkscape:window-height="1017"
     id="namedview6237"
     showgrid="false"
     inkscape:zoom="1"
     inkscape:cx="233.67059"
     inkscape:cy="200.96"
     inkscape:window-x="-8"
     inkscape:window-y="-8"
     inkscape:window-maximized="1"
     inkscape:current-layer="svg6235" />
  <path
     style="fill:#000000;stroke:#000000;stroke-width:1px;stroke-linecap:butt;stroke-linejoin:miter;stroke-opacity:1;fill-opacity:1"
     d="m 112,97 13,29 c 0,0 -18,24 -5,28 13,4 44,2 49,-10 5,-12 1,-46 -16,-52 -17,-6 -27,12 -31,9 -4,-3 -10,-4 -10,-4 z"
     id="path6788"
     inkscape:connector-curvature="0" />
  <path
     style="fill:#000000;stroke:#000000;stroke-width:1px;stroke-linecap:butt;stroke-linejoin:miter;stroke-opacity:1;fill-opacity:1"
     d="m 313,64 c 0,0 -5,32 -13,33 -8,1 -14,9 5,11 19,2 42,3 49,-7 7,-10 19,-10 -3,-22 C 329,67 313,64 313,64 Z"
     id="path6790"
     inkscape:connector-curvature="0" />
  <path
     style="fill:#000000;stroke:#000000;stroke-width:1px;stroke-linecap:butt;stroke-linejoin:miter;stroke-opacity:1;fill-opacity:1"
     d="m 196,197 c 6,-2 6,-21 18,-19 12,2 15,8 23,9 8,1 63,-13 71,-21 8,-8 15,-19 26,-14 11,5 27,-6 38,2 11,8 27,22 10,25 -17,3 -27,-12 -35,-12 -8,0 -41,19 -48,20 -7,1 -54,8 -60,16 -6,8 -8,5 -10,22 -2,17 -12,49 -23,50 -11,1 -34,31 -47,29 -13,-2 -11,-9 1,-18 12,-9 49,-49 44,-59 -5,-10 -12,-2 -30,2 -18,4 -58,26 -61,19 -3,-7 -30,-45 -18,-46 12,-1 10,-19 25,-7 15,12 76,2 76,2 z"
     id="path6792"
     inkscape:connector-curvature="0" />
  <path
     style="fill:#000000;stroke:#000000;stroke-width:1px;stroke-linecap:butt;stroke-linejoin:miter;stroke-opacity:1;fill-opacity:1"
     d="m 139,327 c 0,0 -2,41 16,56 18,15 23,33 28,42 5,9 -145,29 -151,26 -6,-3 -15,-22 -14,-7 1,15 26,54 36,52 10,-2 122,-50 131,-47 9,3 13,15 24,8 11,-7 89,-22 99,-17 10,5 3,-5 26,-1 23,4 71,11 92,24 21,13 31,15 38,10 7,-5 14,-30 6,-36 -8,-6 -45,-27 -52,-26 -7,1 -74,10 -78,10 -4,0 11,-50 19,-54 8,-4 24,-37 17,-42 -7,-5 -11,-21 -26,-21 -15,0 -59,0 -70,2 -11,2 -76,21 -83,22 -7,1 -33,0 -6,12 27,12 0,28 28,19 28,-9 110,-60 118,-47 8,13 12,-1 2,26 -10,27 -7,58 -20,47 -13,-11 -29,-29 -44,-37 -15,-8 -37,-7 -16,13 21,20 39,34 43,46 4,12 14,21 -11,19 -25,-2 -83,11 -88,1 -5,-10 -38,-85 -48,-93 -10,-8 -16,-7 -16,-7 z"
     id="path6794"
     inkscape:connector-curvature="0" />
  <path
     style="fill:#000000;stroke:#000000;stroke-width:1px;stroke-linecap:butt;stroke-linejoin:miter;stroke-opacity:1;fill-opacity:1"
     d="m 274,202 c 0,0 -4,52 6,62 10,10 13,19 25,21 12,2 39,3 44,-5 5,-8 24,-3 -1,-12 -25,-9 -15,-1 -34,-9 -19,-8 -13,-30 -10,-34 3,-4 8,-4 -3,-12 -11,-8 -27,-11 -27,-11 z"
     id="path6796"
     inkscape:connector-curvature="0" />
  <path
     style="fill:#000000;stroke:#000000;stroke-width:1px;stroke-linecap:butt;stroke-linejoin:miter;stroke-opacity:1;fill-opacity:1"
     d="m 217,373 c 0,4 -12,15 -3,23 9,8 5,18 13,14 8,-4 20,-21 16,-28 -4,-7 -5,-16 -20,-13 -15,3 -10,5 -10,5 z"
     id="path6798"
     inkscape:connector-curvature="0" />
</svg>
