<?xml version="1.0" encoding="UTF-8" standalone="no"?>
<!-- Created with Inkscape (http://www.inkscape.org/) -->

<svg
   xmlns:dc="http://purl.org/dc/elements/1.1/"
   xmlns:cc="http://creativecommons.org/ns#"
   xmlns:rdf="http://www.w3.org/1999/02/22-rdf-syntax-ns#"
   xmlns:svg="http://www.w3.org/2000/svg"
   xmlns="http://www.w3.org/2000/svg"
   xmlns:sodipodi="http://sodipodi.sourceforge.net/DTD/sodipodi-0.dtd"
   xmlns:inkscape="http://www.inkscape.org/namespaces/inkscape"
   version="1.1"
   id="svg2876"
   width="512"
   height="512"
   viewBox="0 0 512 512"
   sodipodi:docname="U+767B.svg"
   inkscape:version="0.92.4 (5da689c313, 2019-01-14)">
  <metadata
     id="metadata2882">
    <rdf:RDF>
      <cc:Work
         rdf:about="">
        <dc:format>image/svg+xml</dc:format>
        <dc:type
           rdf:resource="http://purl.org/dc/dcmitype/StillImage" />
        <dc:title></dc:title>
      </cc:Work>
    </rdf:RDF>
  </metadata>
  <defs
     id="defs2880" />
  <sodipodi:namedview
     pagecolor="#ffffff"
     bordercolor="#666666"
     borderopacity="1"
     objecttolerance="10"
     gridtolerance="10"
     guidetolerance="10"
     inkscape:pageopacity="0"
     inkscape:pageshadow="2"
     inkscape:window-width="1920"
     inkscape:window-height="1017"
     id="namedview2878"
     showgrid="false"
     inkscape:zoom="1"
     inkscape:cx="341.33334"
     inkscape:cy="181.33334"
     inkscape:window-x="-8"
     inkscape:window-y="-8"
     inkscape:window-maximized="1"
     inkscape:current-layer="svg2876" />
  <path
     style="fill:#000000;stroke:#000000;stroke-width:1px;stroke-linecap:butt;stroke-linejoin:miter;stroke-opacity:1;fill-opacity:1"
     d="m 111,118 c 8,12 19,19 22,27 3,8 12,8 12,14 0,6 2,31 -5,38 -7,7 -92,111 -100,109 -8,-2 -7,-4 -17,-3 -10,1 -9,0 -11,10 -2,10 -9,17 4,23 13,6 24,5 30,-7 6,-12 5,-21 13,-24 8,-3 82,-81 84,-86 2,-5 36,-68 42,-68 6,0 15,-26 20,-25 5,1 13,-4 10,-9 -3,-5 -3,-10 -13,-10 -10,0 -7,3 -22,8 -15,5 -42,16 -53,9 -11,-7 -16,-6 -16,-6 z"
     id="path3429"
     inkscape:connector-curvature="0" />
  <path
     style="fill:#000000;stroke:#000000;stroke-width:1px;stroke-linecap:butt;stroke-linejoin:miter;stroke-opacity:1;fill-opacity:1"
     d="m 95,160 c 0,0 1,17 8,23 7,6 11,23 16,15 5,-8 17,-6 13,-15 -4,-9 -5,-11 -17,-17 -12,-6 -20,-6 -20,-6 z"
     id="path3431"
     inkscape:connector-curvature="0" />
  <path
     style="fill:#000000;stroke:#000000;stroke-width:1px;stroke-linecap:butt;stroke-linejoin:miter;stroke-opacity:1;fill-opacity:1"
     d="m 249,96 c -13,19 -10,37 -4,40 6,3 21,12 29,18 8,6 7,8 3,9 -4,1 -31,-3 -25,7 6,10 20,16 24,16 4,0 9,-10 19,-7 10,3 10,-3 22,17 12,20 72,86 81,93 9,7 7,21 29,14 22,-7 79,-15 83,-19 4,-4 8,-4 -5,-7 -13,-3 -128,-64 -138,-78 -10,-14 -41,-25 -46,-33 -5,-8 3,-20 18,-29 15,-9 22,-5 28,-15 6,-10 13,-8 2,-26 -11,-18 -5,-16 -22,-24 -17,-8 -11,-6 -29,-3 -18,3 -27,6 -29,12 -2,6 16,28 22,28 6,0 13,-13 6,7 -7,20 -23,36 -21,33 2,-3 3,-7 -10,-18 -13,-11 -27,-30 -37,-35 z"
     id="path3433"
     inkscape:connector-curvature="0" />
  <path
     style="fill:#000000;stroke:#000000;stroke-width:1px;stroke-linecap:butt;stroke-linejoin:miter;stroke-opacity:1;fill-opacity:1"
     d="m 203,204 c 7,-5 46,-17 46,-17 0,0 10,-4 13,5 3,9 4,14 -6,17 -10,3 -21,9 -30,9 -9,0 -9,8 -20,0 -11,-8 -7,-14 -7,-14 z"
     id="path3435"
     inkscape:connector-curvature="0" />
  <path
     style="fill:#000000;stroke:#000000;stroke-width:1px;stroke-linecap:butt;stroke-linejoin:miter;stroke-opacity:1;fill-opacity:1"
     d="m 156,247 c 6,11 11,23 17,32 6,9 10,27 10,27 0,0 -8,5 10,13 18,8 54,-4 69,-7 15,-3 26,-12 19,-13 -7,-1 -11,-2 -11,-2 0,0 -5,-3 10,-16 15,-13 -2,-8 10,-16 12,-8 18,3 12,-11 -6,-14 -9,-14 -23,-22 -14,-8 -21,-12 -26,-3 -5,9 4,14 -12,14 -16,0 -46,9 -46,9 0,0 -2,9 6,15 8,6 16,22 26,9 10,-13 18,-20 22,-16 4,4 14,10 7,20 -7,10 -34,23 -34,23 l -18,4 c 0,0 -6,12 -7,-1 -1,-13 -3,-15 -5,-30 -2,-15 -10,-24 -18,-27 -8,-3 -18,-2 -18,-2 z"
     id="path3437"
     inkscape:connector-curvature="0" />
  <path
     style="fill:#000000;stroke:#000000;stroke-width:1px;stroke-linecap:butt;stroke-linejoin:miter;stroke-opacity:1;fill-opacity:1"
     d="m 172,342 c -5,1 -10,13 -3,25 7,12 18,14 18,14 0,0 -3,9 -16,11 -13,2 -22,3 -29,3 -7,0 -23,-22 -13,1 10,23 6,34 21,33 15,-1 16,-6 29,-14 13,-8 31,-15 42,-15 11,0 37,5 50,9 13,4 64,18 69,21 5,3 33,-23 33,-23 0,0 4,-7 -9,-12 -13,-5 -98,-8 -98,-8 0,0 -33,1 -29,-3 4,-4 20,-26 20,-26 0,0 25,-27 21,-30 -4,-3 -2,-6 -13,-6 -11,0 -14,2 -18,8 -4,6 -22,36 -30,43 -8,7 -5,20 -9,11 -4,-9 1,-24 -5,-35 -6,-11 -15,-21 -15,-21 z"
     id="path3439"
     inkscape:connector-curvature="0" />
</svg>
