<?xml version="1.0" encoding="UTF-8" standalone="no"?>
<!-- Created with Inkscape (http://www.inkscape.org/) -->

<svg
   xmlns:dc="http://purl.org/dc/elements/1.1/"
   xmlns:cc="http://creativecommons.org/ns#"
   xmlns:rdf="http://www.w3.org/1999/02/22-rdf-syntax-ns#"
   xmlns:svg="http://www.w3.org/2000/svg"
   xmlns="http://www.w3.org/2000/svg"
   xmlns:sodipodi="http://sodipodi.sourceforge.net/DTD/sodipodi-0.dtd"
   xmlns:inkscape="http://www.inkscape.org/namespaces/inkscape"
   version="1.1"
   id="svg3441"
   width="512"
   height="512"
   viewBox="0 0 512 512"
   sodipodi:docname="U+800C.svg"
   inkscape:version="0.92.4 (5da689c313, 2019-01-14)">
  <metadata
     id="metadata3447">
    <rdf:RDF>
      <cc:Work
         rdf:about="">
        <dc:format>image/svg+xml</dc:format>
        <dc:type
           rdf:resource="http://purl.org/dc/dcmitype/StillImage" />
        <dc:title></dc:title>
      </cc:Work>
    </rdf:RDF>
  </metadata>
  <defs
     id="defs3445" />
  <sodipodi:namedview
     pagecolor="#ffffff"
     bordercolor="#666666"
     borderopacity="1"
     objecttolerance="10"
     gridtolerance="10"
     guidetolerance="10"
     inkscape:pageopacity="0"
     inkscape:pageshadow="2"
     inkscape:window-width="1920"
     inkscape:window-height="1017"
     id="namedview3443"
     showgrid="false"
     inkscape:zoom="1"
     inkscape:cx="40.959999"
     inkscape:cy="263.11593"
     inkscape:window-x="-8"
     inkscape:window-y="-8"
     inkscape:window-maximized="1"
     inkscape:current-layer="svg3441" />
  <path
     style="fill:#000000;stroke:#000000;stroke-width:1px;stroke-linecap:butt;stroke-linejoin:miter;stroke-opacity:1;fill-opacity:1"
     d="m 70,158 c 23,0 34,8 46,8 12,0 14,0 14,0 0,0 2,0 19,-4 17,-4 172,-33 172,-33 0,0 9,-5 19,-14 10,-9 17,-18 24,-10 7,8 43,13 40,22 -3,9 5,19 -10,22 -15,3 -29,-7 -42,-7 -13,0 -49,6 -63,10 -14,4 -82,19 -93,26 -11,7 -53,18 -68,22 -15,4 -48,15 -47,5 1,-10 -4,-26 -12,-35 -8,-9 1,-12 1,-12 z"
     id="path3994"
     inkscape:connector-curvature="0" />
  <path
     style="fill:#000000;stroke:#000000;stroke-width:1px;stroke-linecap:butt;stroke-linejoin:miter;stroke-opacity:1;fill-opacity:1"
     d="m 81,265 c -8,5 -5,14 -10,33 -5,19 9,56 10,62 1,6 17,0 12,24 -5,24 -6,42 6,43 12,1 23,11 24,-2 1,-13 -16,-124 -12,-125 4,-1 20,-12 29,-12 9,0 31,-6 45,-9 14,-3 36,-9 42,-17 6,-8 19,-40 23,-44 4,-4 7,0 10,-6 3,-6 11,-10 4,-15 -7,-5 -15,-2 -20,-8 -5,-6 -13,-13 -21,-11 -8,2 -17,0 -13,7 4,7 12,3 11,14 -1,11 -3,15 -14,30 -11,15 -25,27 -40,34 -15,7 -31,17 -43,19 -12,2 -4,20 -16,9 -12,-11 -7,-25 -18,-25 -11,0 -9,-1 -9,-1 z"
     id="path3996"
     inkscape:connector-curvature="0" />
  <path
     style="fill:#000000;stroke:#000000;stroke-width:1px;stroke-linecap:butt;stroke-linejoin:miter;stroke-opacity:1;fill-opacity:1"
     d="m 307,244 c 0,0 128,-9 143,-5 15,4 23,7 27,18 4,11 10,10 3,29 -7,19 -21,36 -33,55 -12,19 -31,62 -43,66 -12,4 -18,9 -18,9 0,0 3,-13 -4,-26 -7,-13 -2,-19 -16,-33 -14,-14 -22,-19 -12,-19 10,0 28,2 34,2 6,0 6,17 15,8 9,-9 64,-74 56,-79 -8,-5 -4,-9 -21,-10 -17,-1 -42,-16 -67,-8 -25,8 -29,14 -71,18 -42,4 -20,18 -32,13 -12,-5 -26,-13 -26,-19 0,-6 4,-8 14,-9 10,-1 51,-10 51,-10 z"
     id="path3998"
     inkscape:connector-curvature="0" />
  <path
     style="fill:#000000;stroke:#000000;stroke-width:1px;stroke-linecap:butt;stroke-linejoin:miter;stroke-opacity:1;fill-opacity:1"
     d="m 193,291 c 0,10 -10,18 0,35 10,17 14,41 26,31 12,-10 14,-18 9,-33 -5,-15 -4,-24 -12,-28 -8,-4 -18,-5 -18,-5 z"
     id="path4000"
     inkscape:connector-curvature="0" />
  <path
     style="fill:#000000;stroke:#000000;stroke-width:1px;stroke-linecap:butt;stroke-linejoin:miter;stroke-opacity:1;fill-opacity:1"
     d="m 272,289 c 2,12 3,25 4,40 1,15 6,26 20,26 14,0 19,-4 19,-21 0,-17 -2,-30 -12,-38 -10,-8 -18,-12 -23,-12 -5,0 -8,5 -8,5 z"
     id="path4002"
     inkscape:connector-curvature="0" />
</svg>
