<?xml version="1.0" encoding="UTF-8" standalone="no"?>
<!-- Created with Inkscape (http://www.inkscape.org/) -->

<svg
   xmlns:dc="http://purl.org/dc/elements/1.1/"
   xmlns:cc="http://creativecommons.org/ns#"
   xmlns:rdf="http://www.w3.org/1999/02/22-rdf-syntax-ns#"
   xmlns:svg="http://www.w3.org/2000/svg"
   xmlns="http://www.w3.org/2000/svg"
   xmlns:sodipodi="http://sodipodi.sourceforge.net/DTD/sodipodi-0.dtd"
   xmlns:inkscape="http://www.inkscape.org/namespaces/inkscape"
   version="1.1"
   id="svg4571"
   width="534"
   height="534"
   viewBox="0 0 534 534"
   sodipodi:docname="U+8077.svg"
   inkscape:version="0.92.4 (5da689c313, 2019-01-14)">
  <metadata
     id="metadata4577">
    <rdf:RDF>
      <cc:Work
         rdf:about="">
        <dc:format>image/svg+xml</dc:format>
        <dc:type
           rdf:resource="http://purl.org/dc/dcmitype/StillImage" />
        <dc:title></dc:title>
      </cc:Work>
    </rdf:RDF>
  </metadata>
  <defs
     id="defs4575" />
  <sodipodi:namedview
     pagecolor="#ffffff"
     bordercolor="#666666"
     borderopacity="1"
     objecttolerance="10"
     gridtolerance="10"
     guidetolerance="10"
     inkscape:pageopacity="0"
     inkscape:pageshadow="2"
     inkscape:window-width="1920"
     inkscape:window-height="1017"
     id="namedview4573"
     showgrid="false"
     inkscape:zoom="1.4142136"
     inkscape:cx="362.15076"
     inkscape:cy="261.64823"
     inkscape:window-x="-8"
     inkscape:window-y="-8"
     inkscape:window-maximized="1"
     inkscape:current-layer="svg4571" />
  <path
     style="fill:#000000;stroke:#000000;stroke-width:1px;stroke-linecap:butt;stroke-linejoin:miter;stroke-opacity:1;fill-opacity:1"
     d="m 46,153 c 13,7 31,19 40,11 9,-8 93,-51 94,-60 1,-9 -2,-9 4,-15 6,-6 6,-13 9,-7 3,6 7,25 3,33 -4,8 -16,35 -24,36 -8,1 -84,25 -80,27 4,2 7,21 8,25 1,4 3,92 3,92 l 67,-23 c 0,0 -3,-116 6,-120 9,-4 22,3 27,6 5,3 15,12 6,20 -9,8 -10,13 -13,23 -3,10 -15,52 -9,52 6,0 15,4 20,6 5,2 26,-1 26,-1 0,0 5,-5 1,-14 -4,-9 -9,-26 -2,-21 7,5 22,5 26,11 4,6 11,15 11,15 0,0 19,-40 16,-44 -3,-4 -6,-10 -6,-10 0,0 -8,8 -18,13 -10,5 -24,2 -24,2 0,0 -24,-26 -13,-32 11,-6 8,-3 21,-2 13,1 17,-2 13,-16 -4,-14 -4,-16 -10,-26 -6,-10 -16,-12 -4,-13 12,-1 27,2 33,7 6,5 25,2 14,17 -11,15 -21,23 -7,20 14,-3 32,-7 31,-13 -1,-6 -26,-130 -26,-130 0,0 4,-4 8,-1 4,3 39,53 37,60 -2,7 -7,68 0,72 7,4 12,6 12,6 0,0 16,10 0,14 -16,4 -27,4 -35,4 -8,0 -33,6 -25,11 8,5 26,9 27,15 1,6 -17,36 -13,37 4,1 26,-6 26,-6 l -3,-56 c 0,0 -2,-7 5,-3 7,4 12,47 19,52 7,5 57,11 66,12 9,1 21,2 26,-4 5,-6 3,-11 13,-5 10,6 40,17 43,25 3,8 9,19 2,19 -7,0 -30,-12 -51,-11 -21,1 -31,2 -38,-3 -7,-5 -2,-1 3,-8 5,-7 4,-10 -6,-7 -10,3 -41,6 -49,6 -8,0 22,100 30,104 8,4 24,-56 24,-61 0,-5 -16,-23 -6,-23 10,0 30,2 29,10 -1,8 -27,107 -27,107 0,0 65,82 67,76 2,-6 15,-30 13,-35 -2,-5 -13,-24 0,-6 13,18 19,66 26,71 7,5 15,3 15,15 0,12 1,18 -12,19 -13,1 -75,-56 -75,-56 0,0 -29,-52 -32,-59 -3,-7 -7,-10 -7,-10 0,0 -16,19 -21,26 -5,7 -12,26 -21,23 -9,-3 -13,-13 -20,-16 -7,-3 -15,-8 -15,-8 0,0 -12,16 -16,7 -4,-9 -12,-30 -12,-30 0,0 3,-10 -16,-5 -19,5 -8,12 -19,5 -11,-7 -11,-3 -16,-4 -5,-1 -2,0 0,10 2,10 1,45 -4,45 -5,0 -29,-25 -28,-30 1,-5 15,-33 12,-40 -3,-7 -11,-73 -15,-77 -4,-4 -18,-18 -3,-10 15,8 28,17 39,25 l 26.23611,10.59589 c 0,0 -0.70711,19.09188 -10.6066,20.50609 -9.8995,1.41422 -15.55635,-9.19238 -18.38478,2.12132 -2.82842,11.31371 -4.94974,21.21321 2.82843,21.21321 7.77817,0 53.74012,-7.07107 53.03301,-13.43503 -0.70711,-6.36396 4.24264,-53.74012 -0.70711,-57.98276 -4.94975,-4.24264 -11.31371,-2.12132 -21.92031,-3.53553 -10.6066,-1.41421 -50.20458,0 -39.59798,-8.48528 10.6066,-8.48528 51.6188,-18.38478 56.56854,-18.38478 4.94975,0 38.18377,14.14214 38.18377,21.21321 0,7.07106 -14.14214,38.89087 -14.14214,45.25483 0,6.36396 6.36397,57.27565 10.60661,62.9325 4.24264,5.65686 6.36396,13.43503 12.72792,10.6066 6.36396,-2.82842 24.04163,-7.07106 31.8198,-16.97056 7.77818,-9.89949 16.97057,-12.02081 12.72793,-16.97056 -4.24264,-4.94975 -45.96194,-89.80256 -45.96194,-93.3381 0,-3.53553 -1.41422,-5.65685 -2.82843,-21.2132 -1.41422,-15.55635 4.94975,-13.43503 -2.12132,-15.55635 -7.07107,-2.12132 -9.8995,2.82843 -21.92031,3.53553 -12.02082,0.70711 -27.57717,0.70711 -36.06245,5.65686 -8.48528,4.94975 -19.79899,14.84924 -26.16295,15.55635 -6.36396,0.70711 -7.77817,-6.36396 -13.43503,-2.82843 -5.65685,3.53554 -17.67767,11.31371 -27.57716,14.84924 -9.8995,3.53554 -23.33453,7.07107 -23.33453,7.07107 0,0 -3.53553,-3.53553 -6.36396,7.07107 -2.82842,10.6066 3.53554,146.3711 7.77818,156.2706 4.24264,9.89949 -1.41422,28.99138 -1.41422,28.99138 0,0 -9.89949,0 -18.38477,-12.72793 -8.48528,-12.72792 -16.97057,-61.51829 -12.02082,-60.10407 4.94975,1.41421 10.6066,14.84924 10.6066,-7.07107 0,-21.92031 8.48528,-72.12489 6.36396,-78.48885 -2.12132,-6.36396 5.65686,-16.26346 -3.53553,-7.77818 -9.19239,8.48528 -17.67767,15.55635 -25.45584,26.16295 -7.77818,10.60661 -26.16295,33.94113 -29.69849,41.0122 -3.53553,7.07106 -16.970561,14.14213 -24.748736,23.33452 -7.778174,9.19239 -7.071067,21.2132 -24.04163,33.23402 -16.970563,12.02081 -33.234019,25.45584 -36.769553,19.09188 -3.535534,-6.36396 -7.778174,-14.14213 -0.707107,-31.8198 7.071068,-17.67767 5.656855,-12.72793 17.67767,-28.28427 12.020815,-15.55635 26.162951,-33.94113 26.162951,-33.94113 0,0 -10.606602,16.26346 -6.363961,21.2132 4.242641,4.94975 -11.313709,19.79899 2.12132,9.8995 13.435029,-9.8995 96.873626,-98.99495 100.409166,-105.35891 3.53553,-6.36396 11.31371,-12.72792 3.53553,-12.02082 -7.77817,0.70711 -13.43503,-6.36396 -23.33452,2.12132 -9.8995,8.48528 -89.095457,53.03301 -89.095457,53.03301 0,0 -28.284271,12.72792 -28.284271,0 0,-12.72792 22.627417,-28.28427 31.112698,-28.28427 8.485281,0 21.213203,0 23.334524,-3.53553 2.12132,-3.53554 -4.949748,0.7071 -4.949748,-13.43503 0,-14.14214 -3.535534,-4.24264 1.414214,-16.26346 4.949747,-12.02081 0.707107,-62.22539 -0.707107,-73.5391 -1.414213,-11.31371 -0.707107,-24.04163 -9.192388,-22.62742 -8.485281,1.41421 -14.849242,4.24264 -17.67767,2.82843 -2.828427,-1.41422 -4.949747,-5.65686 -2.12132,-5.65686 2.828427,0 12.020815,-5.65685 8.485281,-9.19239 -3.535533,-3.53553 -9.192388,-3.53553 -13.435028,-10.6066 C 42.426407,152.86944 46,153 46,153 Z"
     id="path5124"
     inkscape:connector-curvature="0" />
  <path
     style="fill:#000000;stroke:#000000;stroke-width:1px;stroke-linecap:butt;stroke-linejoin:miter;stroke-opacity:1;fill-opacity:1"
     d="m 153.44217,183.27504 c -11.31371,0 -24.04163,0.7071 -28.99138,7.77817 -4.94974,7.07107 2.12132,21.92031 9.19239,22.62742 7.07107,0.7071 29.69849,-18.38478 29.69849,-18.38478 z"
     id="path5126"
     inkscape:connector-curvature="0" />
  <path
     style="fill:#000000;stroke:#000000;stroke-width:1px;stroke-linecap:butt;stroke-linejoin:miter;stroke-opacity:1;fill-opacity:1"
     d="m 146.3711,230.65119 c -4.24264,-1.41421 -25.45584,9.8995 -25.45584,12.72792 0,2.82843 -3.53553,5.65686 8.48528,11.31371 12.02082,5.65686 16.97056,12.02082 21.92031,2.12132 4.94975,-9.89949 9.8995,-26.16295 9.8995,-26.16295 z"
     id="path5128"
     inkscape:connector-curvature="0" />
  <path
     style="fill:#000000;stroke:#000000;stroke-width:1px;stroke-linecap:butt;stroke-linejoin:miter;stroke-opacity:1;fill-opacity:1"
     d="m 382.54477,157.81919 c -0.70711,3.53554 21.2132,46.66905 33.94112,48.79037 12.72793,2.12132 23.33453,12.02082 26.16296,-3.53553 2.82842,-15.55635 -14.84925,-32.52692 -14.84925,-32.52692 z"
     id="path5130"
     inkscape:connector-curvature="0" />
</svg>
