<?xml version="1.0" encoding="UTF-8" standalone="no"?>
<!-- Created with Inkscape (http://www.inkscape.org/) -->

<svg
   xmlns:dc="http://purl.org/dc/elements/1.1/"
   xmlns:cc="http://creativecommons.org/ns#"
   xmlns:rdf="http://www.w3.org/1999/02/22-rdf-syntax-ns#"
   xmlns:svg="http://www.w3.org/2000/svg"
   xmlns="http://www.w3.org/2000/svg"
   xmlns:sodipodi="http://sodipodi.sourceforge.net/DTD/sodipodi-0.dtd"
   xmlns:inkscape="http://www.inkscape.org/namespaces/inkscape"
   version="1.1"
   id="svg815"
   width="612"
   height="512"
   viewBox="0 0 612 512"
   sodipodi:docname="U+8A60.svg"
   inkscape:version="0.92.4 (5da689c313, 2019-01-14)">
  <metadata
     id="metadata821">
    <rdf:RDF>
      <cc:Work
         rdf:about="">
        <dc:format>image/svg+xml</dc:format>
        <dc:type
           rdf:resource="http://purl.org/dc/dcmitype/StillImage" />
        <dc:title></dc:title>
      </cc:Work>
    </rdf:RDF>
  </metadata>
  <defs
     id="defs819" />
  <sodipodi:namedview
     pagecolor="#ffffff"
     bordercolor="#666666"
     borderopacity="1"
     objecttolerance="10"
     gridtolerance="10"
     guidetolerance="10"
     inkscape:pageopacity="0"
     inkscape:pageshadow="2"
     inkscape:window-width="1920"
     inkscape:window-height="1017"
     id="namedview817"
     showgrid="false"
     units="px"
     width="612in"
     inkscape:zoom="1"
     inkscape:cx="251.74829"
     inkscape:cy="200.96"
     inkscape:window-x="-8"
     inkscape:window-y="-8"
     inkscape:window-maximized="1"
     inkscape:current-layer="svg815" />
  <path
     style="fill:#000000;stroke:#000000;stroke-width:1px;stroke-linecap:butt;stroke-linejoin:miter;stroke-opacity:1;fill-opacity:1"
     d="m 158,109 30,45 c 0,0 43,-11 43,-17 0,-6 -11,-31 -26,-30 -15,1 -47,2 -47,2 z"
     id="path825"
     inkscape:connector-curvature="0" />
  <path
     style="fill:#000000;stroke:#000000;stroke-width:1px;stroke-linecap:butt;stroke-linejoin:miter;stroke-opacity:1;fill-opacity:1"
     d="m 15,186 c 0,0 22,17 38,14 16,-3 194,-61 194,-61 0,0 38,2 37,12 -1,10 -9,12 -20,12 -11,0 -33,-6 -50,1 -17,7 -100,30 -100,30 0,0 -39,22 -44,28 -5,6 -17,34 -29,25 -12,-9 -29,-60 -26,-61 z"
     id="path827"
     inkscape:connector-curvature="0" />
  <path
     style="fill:#000000;stroke:#000000;stroke-width:1px;stroke-linecap:butt;stroke-linejoin:miter;stroke-opacity:1;fill-opacity:1"
     d="m 126,298 c 0,0 4,12 14,8 10,-4 48,-37 48,-37 0,0 44,-12 42,-1 -2,11 -12,25 -38,39 -26,14 -52,32 -60,27 -8,-5 -21,-38 -6,-36 z"
     id="path829"
     inkscape:connector-curvature="0" />
  <path
     style="fill:#000000;stroke:#000000;stroke-width:1px;stroke-linecap:butt;stroke-linejoin:miter;stroke-opacity:1;fill-opacity:1"
     d="m 143,214 c 0,0 10,12 20,7 10,-5 39,-27 45,-27 6,0 30,-4 29,8 -1,12 -8,18 -21,25 -13,7 -19,10 -30,19 -11,9 -27,23 -32,16 -5,-7 -25,-45 -11,-48 z"
     id="path831"
     inkscape:connector-curvature="0" />
  <path
     style="fill:#000000;stroke:#000000;stroke-width:1px;stroke-linecap:butt;stroke-linejoin:miter;stroke-opacity:1;fill-opacity:1"
     d="m 148,365 c 0,0 63,-21 67,-30 4,-9 3,-13 20,-6 17,7 31,12 27,27 -4,15 -21,34 -14,32 7,-2 32,-8 20,8 -12,16 -63,47 -58,49 5,2 -34,-18 -34,-18 0,0 38,-17 38,-21 0,-4 8,-41 2,-39 -6,2 -26,24 -32,24 -6,0 -42,-24 -36,-26 z"
     id="path833"
     inkscape:connector-curvature="0" />
  <path
     style="fill:#000000;stroke:#000000;stroke-width:1px;stroke-linecap:butt;stroke-linejoin:miter;stroke-opacity:1;fill-opacity:1"
     d="m 115,381 c 0,0 57,21 56,27 -1,6 25,67 21,72 -4,5 -4,26 -12,20 -8,-6 -17,-49 -25,-53 -8,-4 -55,-53 -47,-53 8,0 -7,-13 2,-13 9,0 5,0 5,0 z"
     id="path835"
     inkscape:connector-curvature="0" />
  <path
     style="fill:#000000;stroke:#000000;stroke-width:1px;stroke-linecap:butt;stroke-linejoin:miter;stroke-opacity:1;fill-opacity:1"
     d="m 310,86 c 0,0 13,36 32,39 19,3 44,-12 32,-20 -12,-8 -23,-29 -64,-19 z"
     id="path837"
     inkscape:connector-curvature="0" />
  <path
     style="fill:#000000;stroke:#000000;stroke-width:1px;stroke-linecap:butt;stroke-linejoin:miter;stroke-opacity:1;fill-opacity:1"
     d="m 299,180 c 40,-12 42,-13 50,-22 8,-9 35,17 28,29 -7,12 -15,25 -16,30 -1,5 -16,-26 -16,-26 0,0 -19,22 -28,19 -9,-3 -22,-32 -18,-30 z"
     id="path839"
     inkscape:connector-curvature="0" />
  <path
     style="fill:#000000;stroke:#000000;stroke-width:1px;stroke-linecap:butt;stroke-linejoin:miter;stroke-opacity:1;fill-opacity:1"
     d="m 453,146 c 0,0 14,8 2,28 -12,20 -40,43 -27,44 13,1 43,-38 48,-38 5,0 28,-9 25,-14 -3,-5 -23,-33 -29,-32 -6,1 -26,7 -19,12 z"
     id="path841"
     inkscape:connector-curvature="0" />
  <path
     style="fill:#000000;stroke:#000000;stroke-width:1px;stroke-linecap:butt;stroke-linejoin:miter;stroke-opacity:1;fill-opacity:1"
     d="m 238,274 c 0,0 64,-22 67,-29 3,-7 22,-7 25,-1 3,6 1,36 -5,42 -6,6 -30,69 -30,69 0,0 -10,14 -15,13 -5,-1 -13,-13 -7,-18 6,-5 42,-72 36,-74 -6,-2 -14,-1 -22,4 -8,5 -30,13 -35,9 -5,-4 -14,-15 -14,-15 z"
     id="path843"
     inkscape:connector-curvature="0" />
  <path
     style="fill:#000000;stroke:#000000;stroke-width:1px;stroke-linecap:butt;stroke-linejoin:miter;stroke-opacity:1;fill-opacity:1"
     d="m 354,259 c 0,0 40,-17 51,-23 11,-6 27,-15 18,0 -9,15 -43,24 -30,35 13,11 67,50 110,58 43,8 90,5 94,14 4,9 4,17 -26,18 -30,1 -50,13 -59,18 -9,5 -52,-43 -65,-41 -13,2 -76,-59 -83,-57 -7,2 -17,-18 -10,-22 z"
     id="path845"
     inkscape:connector-curvature="0" />
  <path
     style="fill:#000000;stroke:#000000;stroke-width:1px;stroke-linecap:butt;stroke-linejoin:miter;stroke-opacity:1;fill-opacity:1"
     d="m 335,387 c 0,0 13,17 15,6 2,-11 3,-75 8,-68 5,7 2,34 5,50 3,16 20,63 20,63 0,0 2,26 -6,24 -8,-2 -42,-75 -42,-75 z"
     id="path847"
     inkscape:connector-curvature="0" />
</svg>
