<?xml version="1.0" encoding="UTF-8" standalone="no"?>
<!-- Created with Inkscape (http://www.inkscape.org/) -->

<svg
   xmlns:dc="http://purl.org/dc/elements/1.1/"
   xmlns:cc="http://creativecommons.org/ns#"
   xmlns:rdf="http://www.w3.org/1999/02/22-rdf-syntax-ns#"
   xmlns:svg="http://www.w3.org/2000/svg"
   xmlns="http://www.w3.org/2000/svg"
   xmlns:sodipodi="http://sodipodi.sourceforge.net/DTD/sodipodi-0.dtd"
   xmlns:inkscape="http://www.inkscape.org/namespaces/inkscape"
   version="1.1"
   id="svg849"
   width="512"
   height="512"
   viewBox="0 0 512 512"
   sodipodi:docname="U+8CB4.svg"
   inkscape:version="0.92.4 (5da689c313, 2019-01-14)">
  <metadata
     id="metadata855">
    <rdf:RDF>
      <cc:Work
         rdf:about="">
        <dc:format>image/svg+xml</dc:format>
        <dc:type
           rdf:resource="http://purl.org/dc/dcmitype/StillImage" />
        <dc:title></dc:title>
      </cc:Work>
    </rdf:RDF>
  </metadata>
  <defs
     id="defs853" />
  <sodipodi:namedview
     pagecolor="#ffffff"
     bordercolor="#666666"
     borderopacity="1"
     objecttolerance="10"
     gridtolerance="10"
     guidetolerance="10"
     inkscape:pageopacity="0"
     inkscape:pageshadow="2"
     inkscape:window-width="1920"
     inkscape:window-height="1017"
     id="namedview851"
     showgrid="false"
     units="px"
     showborder="true"
     inkscape:zoom="1"
     inkscape:cx="40.959999"
     inkscape:cy="290.88542"
     inkscape:window-x="-8"
     inkscape:window-y="-8"
     inkscape:window-maximized="1"
     inkscape:current-layer="svg849" />
  <path
     style="fill:#000000;stroke:#000000;stroke-width:1px;stroke-linecap:butt;stroke-linejoin:miter;stroke-opacity:1;fill-opacity:1"
     d="m 185,75 c 3,0 38,13 38,4 0,-9 7,-24 -7,-31 -14,-7 -37,-23 -31,-23 6,0 32,-11 36,-9 4,2 42,5 40,19 -2,14 -10,37 -4,37 6,0 37,-17 44,-16 7,1 35,9 32,23 -3,14 -16,6 -29,18 -13,12 -28,28 -23,29 5,1 -3,5 -8,-1 -5,-6 22,-41 10,-42 -12,-1 -13,-13 -23,-4 -10,9 -2,5 -6,19 -4,14 -9,32 -4,32 5,0 18,-12 33,-6 15,6 54,7 39,13 -15,6 -70,4 -70,12 0,8 -12,24 -5,24 7,0 156,-26 183,-19 27,7 -14,-20 11,-14 25,6 70,21 67,29 -3,8 0,26 -20,19 -20,-7 -105,-18 -119,-17 -14,1 -120,11 -120,11 0,0 1,22 -9,20 -10,-2 -18,-16 -15,-17 3,-1 -72,20 -72,20 l -74,23 c 0,0 -28,19 -33,17 -5,-2 -48,-19 -39,-25 9,-6 220,-37 216,-41 -4,-4 16,-13 6,-16 -10,-3 -45,13 -39,15 6,2 -37,-14 -29,-19 8,-5 18,1 12,-7 -6,-8 -6,-41 -23,-44 -17,-3 -26,-15 -15,-14 11,1 34,-9 40,1 6,10 7,50 16,49 9,-1 41,-5 38,-11 -3,-6 7,-31 -2,-32 -9,-1 -23,9 -30,6 -7,-3 -15,-36 -12,-32 z"
     id="path1402"
     inkscape:connector-curvature="0" />
  <path
     style="fill:#000000;stroke:#000000;stroke-width:1px;stroke-linecap:butt;stroke-linejoin:miter;stroke-opacity:1;fill-opacity:1"
     d="m 351,430 38,54 c 0,0 26,15 34,15 8,0 18,-9 9,-20 -9,-11 -28,-36 -81,-49 z"
     id="path1404"
     inkscape:connector-curvature="0" />
  <path
     style="fill:#000000;stroke:#000000;stroke-width:1px;stroke-linecap:butt;stroke-linejoin:miter;stroke-opacity:1;fill-opacity:1"
     d="m 94,436 c 0,0 -19,7 -23,15 -4,8 -13,43 1,45 14,2 32,5 38,-6 6,-11 14,-22 10,-22 -4,0 -17,14 -20,1 -3,-13 0,-25 0,-25 z"
     id="path1406"
     inkscape:connector-curvature="0" />
  <path
     style="fill:#000000;stroke:#000000;stroke-width:1px;stroke-linecap:butt;stroke-linejoin:miter;stroke-opacity:1;fill-opacity:1"
     d="m 149,232 c 0,0 17,33 18,53 1,20 5,112 5,112 0,0 -10,8 -16,2 -6,-6 -12,-9 -12,-9 0,0 -12,9 -9,17 3,8 11,22 18,22 7,0 100,-43 111,-41 11,2 13,-10 21,-2 8,8 -2,26 7,32 9,6 28,3 29,-2 1,-5 -5,-137 -5,-137 l 5,-52 c 0,0 -16,-22 -30,-22 -14,0 -59,5 -75,10 -16,5 -34,12 -25,17 9,5 16,15 27,6 11,-9 49,-22 56,-20 7,2 18,-6 20,6 2,12 7,121 3,122 -4,1 -19,8 -19,8 0,0 7,10 4,10 -3,0 -32,10 -46,13 -14,3 -47,14 -47,14 l -10,-114 6,-37 c 0,0 -25,-10 -36,-8 z"
     id="path5115"
     inkscape:connector-curvature="0" />
  <path
     style="fill:#000000;stroke:#000000;stroke-width:1px;stroke-linecap:butt;stroke-linejoin:miter;stroke-opacity:1;fill-opacity:1"
     d="m 211,270 48,-19 c 0,0 -6,22 -13,29 -7,7 -16,10 -24,5 -8,-5 -11,-15 -11,-15 z"
     id="path5117"
     inkscape:connector-curvature="0" />
  <path
     style="fill:#000000;stroke:#000000;stroke-width:1px;stroke-linecap:butt;stroke-linejoin:miter;stroke-opacity:1;fill-opacity:1"
     d="m 200,312 c 6,0 10,10 23,5 13,-5 33,-6 30,1 -3,7 -21,30 -28,30 -7,0 -27,-2 -28,-11 -1,-9 -7,-27 3,-25 z"
     id="path5119"
     inkscape:connector-curvature="0" />
</svg>
