<?xml version="1.0" standalone="no"?>
<!DOCTYPE svg PUBLIC "-//W3C//DTD SVG 1.1//EN" "http://www.w3.org/Graphics/SVG/1.1/DTD/svg11.dtd" >
<svg xmlns="http://www.w3.org/2000/svg" xmlns:xlink="http://www.w3.org/1999/xlink" version="1.1" viewBox="0 0 256 256">
  <g transform="matrix(1 0 0 -1 0 204)">
   <path fill="currentColor"
d="M160 34q-1 2 1 1q25 -10 44 -26q11 -9 10 -13q0 -1 -4 -3l-1 -1q-1 1 -2 0h-2q-9 4 -13 9q-11 17 -33 33zM55 107q4 1 5 -3q2 -5 -7 -10q-2 -6 -3 -7t-1 4q-1 5 -4 3q-30 -3 -33 7q-3 1 0 1q10 -7 29 1q4 1 6 2q5 2 8 2zM167 117q-11 -1 -23 -6v-16l2 1q5 2 8 6l3 2
q1 2 11 12q1 0 -1 1zM45 167q1 -1 6 -1q3 1 5 1q11 0 19 -4q3 -2 -1 -7q0 -3 -7 -1q-3 0 -2 -3q-1 -3 -2 -3q-2 0 -2 3q-2 5 -15 10l-2 2q-2 0 -2 1q1 1 3 2zM162 210q-1 1 0 1h3q3 -4 7 -5q1 -2 0 -4v-2q-5 -10 -8 -25q3 0 12 2q9 1 13 3q1 3 4 4q4 4 8 2q0 -1 3 -2
q6 -4 10 -4q2 -2 0 -3q-1 -3 -3 -1h-2q-4 0 -11 -1q-26 -4 -37 -8l-6 -15l2 -1h4q0 -1 1 -1q2 -1 2 -2q1 -4 -8 -4q-6 -1 -18 -10l-10 -8q-21 -15 -22 -20q-2 -5 0 -6q11 -11 21 -11q8 2 9 3q0 8 -1 16q-5 -2 -9 -3q-5 -1 -13 0q-2 0 -1 1q1 0 5 1q9 3 16 6q0 3 -2 7
q-1 2 -2 5q-1 1 1 1q2 -2 5 -3t6 -1t3 -5q7 2 17 4l6 2q-1 0 3 3q3 3 6 2q6 -5 12 -7q2 -3 2 -4q-1 -2 -3 -3h-1q-14 -3 -24 -13h9q2 0 2 -3q-1 -3 -5 -4q-3 1 -24 -8v-9q1 0 6 1q3 1 5 2v1q1 3 3 3h11h3q3 1 3 -1q1 -3 -1 -3q-15 -6 -31 -10l-1 -13q25 4 52 7q0 4 3 6l1 1
q8 3 9 0q5 -4 14 -7q8 -4 12 -8q1 -2 0 -3q-2 -3 -4 -2q-4 -1 -12 4q-12 5 -28 5q-29 -4 -48 -9q-8 -58 -44 -57q-2 0 0 2q3 4 11 4q22 10 27 50q-51 -13 -61 -19q-10 -24 -15 -42q-3 -6 -1 -7q-1 -2 -2 -3q-6 1 -8 4t0 2v1q2 1 4 5q2 9 5 14q4 10 9 25q-14 0 -18 8
q-1 1 2 2q4 -5 20 1l4 8q0 2 1 3q1 4 2 0t1 -10q4 1 12 2q7 1 12 3q2 0 5 1q15 4 29 7v13q-15 -4 -18 -6h-5q-3 1 -6 4q-1 0 1 1q5 -1 10 1q3 0 18 6v6v3q-2 0 -5 -1t-7 -2q-8 -5 -9 0q-2 1 2 6q-5 1 -11 7q-2 1 -2 2q-4 2 -3 5q-4 11 32 34q2 2 -2 1q-9 -1 -12 2q-4 0 0 2
q18 3 25 9q0 1 1 3q2 5 4 14q-9 -3 -20 -6q1 -2 2 -3q2 -1 3 -3q1 -6 -2 -7q-2 -2 -7 1q-9 3 -9 10q-9 -4 -21 -5q-7 -2 -17 1q-2 0 1 2q10 0 32 6q2 0 3 1q-2 7 -5 15q-2 2 1 2l1 -1q5 0 8 -5l2 -4q2 -3 4 -4q2 0 4 1q15 3 23 7q3 5 8 18v4q4 11 2 15z" />
  </g>

</svg>
