<?xml version="1.0" standalone="no"?>
<!DOCTYPE svg PUBLIC "-//W3C//DTD SVG 1.1//EN" "http://www.w3.org/Graphics/SVG/1.1/DTD/svg11.dtd" >
<svg xmlns="http://www.w3.org/2000/svg" xmlns:xlink="http://www.w3.org/1999/xlink" version="1.1" viewBox="0 0 256 256">
  <g transform="matrix(1 0 0 -1 0 204)">
   <path fill="currentColor"
d="M91 106l-1 -24q13 2 18 -5q1 -2 5 -5t6 -4v-1q2 -1 2 -3q0 -3 -2 -4t-1 -5q-4 -42 -27 -60q-4 -2 -6 1q-4 4 -11 7q-19 13 -23 20q-2 1 2 0q13 -9 29 -15q12 -6 17 4q13 17 10 51q-1 19 -16 14q-12 -4 -25 -10q-12 -9 -12 -6q-6 5 -2 11q-2 1 -5 4q-1 1 -3 4q-3 0 4 8
q5 3 2 9q-3 16 -3 33q-1 13 2 17q0 1 1 0q0 -2 2 -5q1 -4 2 -5q1 -2 1 -3q-3 -4 -1 -14q6 1 11 5q8 6 15 10q-1 8 1 16q2 11 -6 12q-2 1 0 2l4 3t6 5q3 2 -1 1q-2 0 -6 -1q-3 -1 -4 -1q-9 -4 -23 -2q-2 0 -2 1t2 2q5 0 16 3l6 2q4 1 11 3q7 1 12 3q-1 2 2 3q2 1 4 1
q9 -3 16 -8q1 -1 1 -2q-3 -3 -5 -2q-10 2 -25 -7q-6 -3 -11 -5q8 -2 14 -8q2 -1 1 -3q-3 -4 -4 -13h4q3 1 6 1q1 0 1 -3q0 -2 -2 -2q-3 -1 -9 -5l-1 -1q-1 -10 1 -16h6h2q1 0 1 -1q1 -2 -9 -7zM161 206q1 -2 4 -5q5 -4 8 -7q3 -4 0 -5q-4 0 -32 -37q10 -6 5 -11
q-8 -1 -5 -33v-9q1 -14 3 -19q3 0 10 2q10 3 17 5h1q3 1 4 3q3 5 8 3t13 -1v23q1 12 1 38q-1 9 -8 10q-9 -2 -23 -8q-4 -3 -12 -1q-3 0 0 2q3 0 6 2q17 8 29 9q4 0 7 -3q1 -2 4 -4q2 -2 7 -6q4 -2 1 -7q-6 -5 -6 -13q-1 -18 -2 -33t-3 -23q-1 -4 -1 -7q-2 -6 -1 -8
q-1 -5 -5 -2q-11 11 -25 20q-3 -1 -5 -2q-15 -4 -25 -9q-9 -5 -16 1q-2 2 2 1q4 0 15 6q-4 4 -5 13q-2 4 1 4q3 2 4 9v10v8q-1 7 -1 12v6q0 4 -3 4q-2 0 -4 -1q-5 -3 -5 6q0 7 10 4q14 15 24 34q8 12 2 18q-3 3 1 1zM185 144l6 -2q2 -2 0 -4q-9 -2 -20 -23q14 -9 12 -14
q-3 -5 -6 -1q-4 6 -8 11q-6 -9 -9 -13q-7 -7 -14 -9q-3 -1 0 1q10 6 20 23q-6 5 -12 8q-9 -9 -7 -2q0 5 3 6q4 1 5 5q8 12 6 18q-1 4 2 1q1 -3 1 -2q3 -5 2 -6l-4 -6q4 -1 13 4q4 1 5 5q1 3 5 0zM199 38q-3 2 -2 3q0 1 3 0q21 -14 30 -22q3 -5 9 -8q1 -1 2 -1q4 -5 -1 -7
q-2 -1 -12 -3q-61 -17 -85 25q-3 5 2 1q27 -38 77 -23q4 1 3 8q-5 12 -26 27zM78 125q-6 -2 -11 -4q-4 -3 -11 -3q0 -8 2 -21q10 2 23 11q-1 2 1 4v7v3q-5 -4 -6 -4q-1 1 2 5q3 3 0 2zM82 103q-13 -5 -23 -9q1 -11 3 -12q1 -3 3 -6q-1 -4 5 -1q2 0 6 2l6 3q-2 5 0 6v17z
M212 81q27 -7 35 -16q0 -4 -3 -5q-4 0 -9 3q-1 0 -1 1q-12 11 -23 16q-3 2 1 1zM134 38q-10 -20 -3 -29q1 -4 -1 -5q-5 -3 -6 0q-7 14 1 22q4 5 8 13q2 4 1 -1zM175 135q-2 0 -8 -3h-2q-2 -2 -4 -1q-4 -5 -5 -8l12 -6q4 7 9 17q1 2 -2 1zM21 46l1 -1q0 -11 6 -15q1 -2 2 -3
q0 -1 2 -2q1 -2 1 -3q0 -7 -2 -5q-8 2 -12 16q-2 7 2 13zM55 56q11 -8 19 -19q2 -3 1 -3q-2 -3 -3 -1q-8 4 -10 8q-1 5 -8 14q-1 1 1 1zM78 62l3 -3q10 -6 14 -11q2 -3 0 -4q-2 -2 -3 -1q-10 5 -15 17q-1 1 1 2zM173 84q10 -8 17 -6q3 0 5 9q-12 0 -22 -3zM37 49q2 -3 7 -7
q6 -5 10 -8q1 -3 0 -6q-3 -3 -3 -1q-5 1 -6 6q-2 2 -4 6q-3 4 -4 8q-2 1 0 2zM158 57q2 -2 9 -4q3 -1 5 -1q5 -3 1 -7q-7 -3 -16 10q-4 2 1 2z" />
  </g>

</svg>
