
<svg xmlns="http://www.w3.org/2000/svg" viewBox="0 0 562 562" width="562" height="512" baseProfile="full" version="1.1">

<ellipse fill="white" stroke = "pink" stroke-width = "20" cx="281" cy="256" rx="240" ry="190"/>
<polygon fill="white" stroke = "pink" stroke-width = "14"  points="190,80 65,170 85,45"/>
<polygon fill="white" stroke = "pink" stroke-width="14"  points="372,80 497,170 477,45"/>
<ellipse fill="white"  stroke-width="1" cx="281" cy="256" rx="240" ry="190"/>
<path d="M70 260 C65 255,0 240,-50,260" stroke-width="14" stroke="pink" fill="none"/>
<path d="M80 320 C75 315,0 315,0,330" stroke-width="14" stroke="pink" fill="none"/>
<path d="M100 365 C95 355,75 355,10,400" stroke-width="14" stroke="pink" fill="none"/>
<path d="M492 260 C487 255,562 240,612,260" stroke-width="14" stroke="pink" fill="none"/>
<path d="M502 320 C497 315,562 315,562,330" stroke-width="14" stroke="pink" fill="none"/>
<path d="M472 365 C507 355,502 355,562,400" stroke-width="14" stroke="pink" fill="none"/>
<polygon fill="white" stroke = "pink" stroke-width="10"  points="345,40 302,150 440,155"/>
<polygon fill="white" stroke = "pink" stroke-width="10"  points="525,120 402,130 480,235"/>
<ellipse fill="white" stroke = "pink" stroke-width = "10" cx="415" cy="135" rx="35" ry="35"/>

<ellipse fill="pink"  cx="156" cy="286" rx="20" ry="30"/>
<ellipse fill="pink"  cx="406" cy="286" rx="20" ry="30"/>
<ellipse fill="white" stroke ="pink" stroke-width="14"  cx="281" cy="336" rx="20" ry="15"/>
</svg>

